<svg width="160" height="166" viewBox="0 0 160 166" fill="none" xmlns="http://www.w3.org/2000/svg">
<path d="M140 69.1667H51L26.0666 10.9975L13.8666 16.6L36.4 69.0975H20C16.3333 69.0975 13.3333 72.21 13.3333 76.0142C13.3333 100.983 26 123.532 46.6666 135.912V145.181C46.6666 148.985 49.6666 152.097 53.3333 152.097H106.667C110.333 152.097 113.333 148.985 113.333 145.181V135.912C134 123.601 146.667 100.983 146.667 76.0142C146.667 72.21 143.667 69.0975 140 69.0975V69.1667ZM103.733 125.607C101.467 126.782 100 129.203 100 131.832V138.333H60V131.832C60 129.203 58.5333 126.782 56.2666 125.607C40 117.237 29.2 101.26 27.0666 83H132.933C130.733 101.329 120 117.237 103.733 125.607Z" fill="#040404"/>
<path d="M133.333 41.5C131.565 41.5 129.87 42.2287 128.619 43.5258C127.369 44.823 126.667 46.5823 126.667 48.4167C126.667 50.2511 127.369 52.0104 128.619 53.3075C129.87 54.6046 131.565 55.3333 133.333 55.3333C135.101 55.3333 136.797 54.6046 138.047 53.3075C139.298 52.0104 140 50.2511 140 48.4167C140 46.5823 139.298 44.823 138.047 43.5258C136.797 42.2287 135.101 41.5 133.333 41.5Z" fill="#040404"/>
<path d="M60 13.8333C58.2319 13.8333 56.5362 14.5621 55.2859 15.8592C54.0357 17.1563 53.3333 18.9156 53.3333 20.75C53.3333 22.5844 54.0357 24.3437 55.2859 25.6408C56.5362 26.938 58.2319 27.6667 60 27.6667C61.7681 27.6667 63.4638 26.938 64.714 25.6408C65.9643 24.3437 66.6666 22.5844 66.6666 20.75C66.6666 18.9156 65.9643 17.1563 64.714 15.8592C63.4638 14.5621 61.7681 13.8333 60 13.8333Z" fill="#040404"/>
<path d="M116.667 13.8333C115.353 13.8333 114.053 14.1017 112.84 14.6231C111.627 15.1445 110.524 15.9087 109.596 16.8721C108.667 17.8355 107.93 18.9792 107.428 20.238C106.925 21.4968 106.667 22.8459 106.667 24.2083C106.667 25.5708 106.925 26.9199 107.428 28.1787C107.93 29.4374 108.667 30.5812 109.596 31.5446C110.524 32.508 111.627 33.2722 112.84 33.7936C114.053 34.315 115.353 34.5833 116.667 34.5833C117.98 34.5833 119.28 34.315 120.494 33.7936C121.707 33.2722 122.809 32.508 123.738 31.5446C124.666 30.5812 125.403 29.4374 125.905 28.1787C126.408 26.9199 126.667 25.5708 126.667 24.2083C126.667 22.8459 126.408 21.4968 125.905 20.238C125.403 18.9792 124.666 17.8355 123.738 16.8721C122.809 15.9087 121.707 15.1445 120.494 14.6231C119.28 14.1017 117.98 13.8333 116.667 13.8333Z" fill="#040404"/>
<path d="M86.6666 27.6667C83.1304 27.6667 79.739 29.1241 77.2386 31.7183C74.7381 34.3126 73.3333 37.8312 73.3333 41.5C73.3333 45.1688 74.7381 48.6874 77.2386 51.2816C79.739 53.8759 83.1304 55.3333 86.6666 55.3333C90.2029 55.3333 93.5942 53.8759 96.0947 51.2816C98.5952 48.6874 100 45.1688 100 41.5C100 37.8312 98.5952 34.3126 96.0947 31.7183C93.5942 29.1241 90.2029 27.6667 86.6666 27.6667Z" fill="#040404"/>
</svg>
