<svg width="168" height="168" viewBox="0 0 168 168" fill="none" xmlns="http://www.w3.org/2000/svg">
<path d="M133.84 105.84C129.08 96.95 115.85 80.5 84 80.5C77.77 80.5 72.24 81.34 67.27 82.67C69.16 67.76 74.48 57.47 78.75 51.17C79.31 55.37 79.31 59.99 78.4 65.24L92.19 67.69C93.59 59.99 93.38 53.06 92.19 46.83C95.13 47.95 98.14 49.49 101.22 51.45L108.78 39.69C101.01 34.72 93.38 31.92 86.24 30.66C80.01 19.88 70.98 12.88 64.54 9.79999L58.52 22.4C58.94 22.61 63.84 25.06 68.81 30.31C57.61 31.92 48.58 36.68 43.61 40.74L52.5 51.52C52.5 51.52 57.75 47.39 66.01 45.15C60.13 54.32 53.76 68.81 52.78 89.04C44.6468 94.2567 38.2028 101.722 34.23 110.53C33.25 110.11 32.27 109.69 31.22 109.2C27.44 107.31 22.75 104.93 14.07 104.93V118.93C19.39 118.93 21.7 120.12 24.92 121.66C28.7 123.55 33.39 125.93 42.07 125.93C50.75 125.93 55.44 123.55 59.22 121.66C62.44 120.05 64.75 118.93 70.07 118.93C75.39 118.93 77.7 120.12 80.92 121.66C84.7 123.55 89.39 125.93 98.07 125.93C106.75 125.93 111.44 123.55 115.22 121.66C118.44 120.05 120.75 118.93 126.14 118.93C131.53 118.93 133.84 120.12 137.06 121.66C140.84 123.55 145.53 125.93 154.21 125.93V111.93C148.82 111.93 146.51 110.74 143.29 109.2C140.369 107.682 137.263 106.553 134.05 105.84H133.84ZM108.85 109.2C105.63 110.81 103.32 111.93 97.93 111.93C92.54 111.93 90.3 110.74 87.08 109.2C83.3 107.31 78.61 104.93 69.93 104.93C61.25 104.93 56.56 107.31 52.78 109.2C51.94 109.62 51.1 110.04 50.33 110.39C55.51 103.04 65.45 94.5 84 94.5C101.5 94.5 111.44 100.59 116.83 106.12C113.54 106.96 110.95 108.15 108.85 109.2ZM126 133C117.32 133 112.63 135.38 108.85 137.27C105.63 138.88 103.32 140 97.93 140C92.54 140 90.3 138.81 87.08 137.27C83.3 135.38 78.61 133 69.93 133C61.25 133 56.56 135.38 52.78 137.27C49.56 138.88 47.25 140 41.93 140C36.61 140 34.3 138.81 31.08 137.27C27.3 135.38 22.61 133 13.93 133V147C19.25 147 21.56 148.19 24.78 149.73C28.56 151.62 33.25 154 41.93 154C50.61 154 55.3 151.62 59.08 149.73C62.3 148.12 64.61 147 69.93 147C75.25 147 77.56 148.19 80.78 149.73C84.56 151.62 89.25 154 97.93 154C106.61 154 111.3 151.62 115.08 149.73C118.3 148.12 120.61 147 126 147C131.39 147 133.7 148.19 136.92 149.73C140.7 151.62 145.39 154 154.07 154V140C148.68 140 146.37 138.81 143.15 137.27C139.37 135.38 134.68 133 126 133Z" fill="black"/>
</svg>
