<svg width="155" height="158" viewBox="0 0 155 158" fill="none" xmlns="http://www.w3.org/2000/svg">
<path d="M138.531 92.8908L116.25 81.5675V79.0658C116.25 76.7617 115.087 74.5892 113.085 73.4042L83.9583 55.5633V39.5658H96.875V26.3992H83.9583V13.2325H71.0417V26.3992H58.125V39.5658H71.0417V55.5633L41.9146 73.4042C39.9771 74.5892 38.75 76.7617 38.75 79.0658V81.5675L16.4688 92.8908C14.2729 94.01 12.9167 96.3142 12.9167 98.75V138.25C12.9167 141.871 15.8229 144.833 19.375 144.833H135.625C139.177 144.833 142.083 141.871 142.083 138.25V98.75C142.083 96.2483 140.727 94.01 138.531 92.8908ZM77.5 66.9525L103.333 82.7525V131.667H90.4167V118.5C90.4167 111.258 84.6042 105.333 77.5 105.333C70.3958 105.333 64.5833 111.258 64.5833 118.5V131.667H51.6667V82.7525L77.5 66.9525ZM25.8333 102.832L38.75 96.2483V131.667H25.8333V102.832ZM129.167 131.667H116.25V96.2483L129.167 102.832V131.667Z" fill="black"/>
<path d="M138.531 92.8908L116.25 81.5675V79.0658C116.25 76.7616 115.088 74.5891 113.086 73.4041L83.9584 55.5633V39.5658H96.8751V26.3992H83.9584V13.2325H71.0418V26.3992H58.1251V39.5658H71.0418V55.5633L41.9147 73.4041C39.9772 74.5891 38.7501 76.7616 38.7501 79.0658V81.5675L16.4688 92.8908C14.273 94.01 12.9168 96.3141 12.9168 98.75V138.25C12.9168 141.871 15.823 144.833 19.3751 144.833H135.625C139.177 144.833 142.083 141.871 142.083 138.25V98.75C142.083 96.2483 140.727 94.01 138.531 92.8908ZM77.5001 66.9525L103.333 82.7525V131.667H90.4168V118.5C90.4168 111.258 84.6043 105.333 77.5001 105.333C70.3959 105.333 64.5834 111.258 64.5834 118.5V131.667H51.6668V82.7525L77.5001 66.9525ZM25.8334 102.832L38.7501 96.2483V131.667H25.8334V102.832ZM129.167 131.667H116.25V96.2483L129.167 102.832V131.667Z" fill="black"/>
<path d="M77.5 79C74.9307 79 72.4667 80.0404 70.6499 81.8923C68.8331 83.7442 67.8125 86.256 67.8125 88.875C67.8125 91.494 68.8331 94.0058 70.6499 95.8577C72.4667 97.7096 74.9307 98.75 77.5 98.75C80.0693 98.75 82.5333 97.7096 84.3501 95.8577C86.1669 94.0058 87.1875 91.494 87.1875 88.875C87.1875 86.256 86.1669 83.7442 84.3501 81.8923C82.5333 80.0404 80.0693 79 77.5 79Z" fill="black"/>
</svg>
