<svg width="108" height="100" viewBox="0 0 108 100" fill="none" xmlns="http://www.w3.org/2000/svg">
<path d="M86.04 63C82.98 57.7084 74.475 47.9167 54 47.9167C49.995 47.9167 46.44 48.4167 43.245 49.2084C44.46 40.3334 47.88 34.2084 50.625 30.4584C50.985 32.9584 50.985 35.7084 50.4 38.8334L59.265 40.2917C60.165 35.7084 60.03 31.5834 59.265 27.875C61.155 28.5417 63.09 29.4584 65.07 30.625L69.93 23.625C64.935 20.6667 60.03 19 55.44 18.25C51.435 11.8334 45.63 7.66671 41.49 5.83337L37.62 13.3334C37.89 13.4584 41.04 14.9167 44.235 18.0417C37.035 19 31.23 21.8334 28.035 24.25L33.75 30.6667C33.75 30.6667 37.125 28.2084 42.435 26.875C38.655 32.3334 34.56 40.9584 33.93 53C28.7015 56.1052 24.5589 60.5489 22.005 65.7917C21.375 65.5417 20.745 65.2917 20.07 65C17.64 63.875 14.625 62.4584 9.04502 62.4584V70.7917C12.465 70.7917 13.95 71.5 16.02 72.4167C18.45 73.5417 21.465 74.9584 27.045 74.9584C32.625 74.9584 35.64 73.5417 38.07 72.4167C40.14 71.4584 41.625 70.7917 45.045 70.7917C48.465 70.7917 49.95 71.5 52.02 72.4167C54.45 73.5417 57.465 74.9584 63.045 74.9584C68.625 74.9584 71.64 73.5417 74.07 72.4167C76.14 71.4584 77.625 70.7917 81.09 70.7917C84.555 70.7917 86.04 71.5 88.11 72.4167C90.54 73.5417 93.555 74.9584 99.135 74.9584V66.625C95.67 66.625 94.185 65.9167 92.115 65C90.2375 64.0968 88.2406 63.4244 86.175 63H86.04ZM69.975 65C67.905 65.9584 66.42 66.625 62.955 66.625C59.49 66.625 58.05 65.9167 55.98 65C53.55 63.875 50.535 62.4584 44.955 62.4584C39.375 62.4584 36.36 63.875 33.93 65C33.39 65.25 32.85 65.5 32.355 65.7084C35.685 61.3334 42.075 56.25 54 56.25C65.25 56.25 71.64 59.875 75.105 63.1667C72.99 63.6667 71.325 64.375 69.975 65ZM81 79.1667C75.42 79.1667 72.405 80.5834 69.975 81.7084C67.905 82.6667 66.42 83.3334 62.955 83.3334C59.49 83.3334 58.05 82.625 55.98 81.7084C53.55 80.5834 50.535 79.1667 44.955 79.1667C39.375 79.1667 36.36 80.5834 33.93 81.7084C31.86 82.6667 30.375 83.3334 26.955 83.3334C23.535 83.3334 22.05 82.625 19.98 81.7084C17.55 80.5834 14.535 79.1667 8.95502 79.1667V87.5C12.375 87.5 13.86 88.2084 15.93 89.125C18.36 90.25 21.375 91.6667 26.955 91.6667C32.535 91.6667 35.55 90.25 37.98 89.125C40.05 88.1667 41.535 87.5 44.955 87.5C48.375 87.5 49.86 88.2084 51.93 89.125C54.36 90.25 57.375 91.6667 62.955 91.6667C68.535 91.6667 71.55 90.25 73.98 89.125C76.05 88.1667 77.535 87.5 81 87.5C84.465 87.5 85.95 88.2084 88.02 89.125C90.45 90.25 93.465 91.6667 99.045 91.6667V83.3334C95.58 83.3334 94.095 82.625 92.025 81.7084C89.595 80.5834 86.58 79.1667 81 79.1667Z" fill="black"/>
</svg>
