<svg width="64" height="64" viewBox="0 0 64 64" fill="none" xmlns="http://www.w3.org/2000/svg">
<path d="M12.81 49.76C13.3603 49.7535 13.9077 49.6796 14.44 49.54C14.1849 50.5453 14.1635 51.5957 14.3774 52.6105C14.5913 53.6254 15.0348 54.5777 15.674 55.3945C16.3131 56.2113 17.1309 56.8708 18.0645 57.3225C18.9982 57.7741 20.0228 58.0059 21.06 58C21.9545 58.0036 22.8407 57.8285 23.6667 57.485C24.4926 57.1416 25.2417 56.6367 25.87 56L26.87 55C27.2717 54.4705 27.4664 53.8126 27.4176 53.1498C27.3689 52.4869 27.08 51.8646 26.6051 51.3996C26.1303 50.9346 25.5021 50.6587 24.8384 50.6238C24.1746 50.5889 23.521 50.7974 23 51.21L22.05 52.21C21.7848 52.4686 21.4277 52.6112 21.0573 52.6065C20.6869 52.6019 20.3336 52.4502 20.075 52.185C19.8164 51.9198 19.6738 51.5627 19.6784 51.1923C19.6831 50.8219 19.8348 50.4686 20.1 50.21L25.41 44.9C25.4073 45.7959 25.582 46.6835 25.9239 47.5115C26.2658 48.3396 26.7683 49.0918 27.4022 49.7249C28.0362 50.3579 28.7891 50.8592 29.6177 51.1999C30.4463 51.5406 31.3341 51.714 32.23 51.71C33.1245 51.7136 34.0107 51.5385 34.8367 51.195C35.6626 50.8516 36.4117 50.3467 37.04 49.71L37.96 48.8C38.4693 48.2868 38.7551 47.593 38.7551 46.87C38.7551 46.147 38.4693 45.4532 37.96 44.94C37.4423 44.4431 36.7525 44.1657 36.035 44.1657C35.3174 44.1657 34.6277 44.4431 34.11 44.94L33.19 45.86C33.0592 45.9904 32.9028 46.0924 32.7307 46.1595C32.5586 46.2266 32.3745 46.2574 32.19 46.25C32.005 46.2538 31.8211 46.2203 31.6493 46.1516C31.4776 46.0829 31.3213 45.9803 31.19 45.85C30.9278 45.5831 30.7806 45.2241 30.78 44.85C30.7749 44.6657 30.8068 44.4823 30.8738 44.3105C30.9408 44.1388 31.0415 43.9822 31.17 43.85L34.12 40.85L34.24 40.91C34.9591 41.1824 35.721 41.3246 36.49 41.33C37.4233 41.2958 38.3401 41.0736 39.1855 40.6767C40.0309 40.2798 40.7875 39.7163 41.41 39.02C42.0395 38.355 42.6337 37.6574 43.19 36.93L48.97 37.19H49.21C50.4978 37.1956 51.7396 36.7109 52.6831 35.8343C53.6266 34.9577 54.2011 33.7548 54.29 32.47L55.64 14.47C55.64 13.82 56.64 10.66 54.87 8.90001C53.1 7.14001 50.12 8.06001 49.3 8.13001L31.3 9.48001C30.6311 9.5341 29.9795 9.72019 29.3829 10.0275C28.7864 10.3349 28.2566 10.7574 27.8242 11.2706C27.3919 11.7839 27.0655 12.3777 26.8639 13.0178C26.6624 13.6579 26.5897 14.3316 26.65 15L26.91 20.78C26.1826 21.3363 25.485 21.9305 24.82 22.56C22.26 25.12 22.1 27.6 23 29.86L20 32.79C19.738 33.0315 19.3928 33.1623 19.0366 33.155C18.6804 33.1478 18.3408 33.0031 18.0889 32.7511C17.8369 32.4992 17.6922 32.1596 17.6849 31.8034C17.6777 31.4472 17.8085 31.102 18.05 30.84L18.97 29.92C19.4787 29.4085 19.7642 28.7164 19.7642 27.995C19.7642 27.2736 19.4787 26.5815 18.97 26.07C18.4535 25.5708 17.7633 25.2918 17.045 25.2918C16.3267 25.2918 15.6365 25.5708 15.12 26.07L14.2 26.99C13.25 27.9449 12.6041 29.1597 12.3436 30.4812C12.0831 31.8028 12.2198 33.1718 12.7365 34.4158C13.2531 35.6597 14.1265 36.7228 15.2465 37.471C16.3665 38.2192 17.683 38.619 19.03 38.62L13.72 43.93C13.5883 44.0586 13.4316 44.1588 13.2595 44.2241C13.0875 44.2895 12.9038 44.3187 12.72 44.31C12.535 44.3138 12.3511 44.2803 12.1793 44.2116C12.0076 44.1429 11.8513 44.0403 11.72 43.91C11.4605 43.6421 11.3168 43.2829 11.32 42.91C11.3137 42.7256 11.3451 42.5418 11.4122 42.3699C11.4792 42.198 11.5805 42.0415 11.71 41.91L12.71 40.91C13.2187 40.3985 13.5042 39.7064 13.5042 38.985C13.5042 38.2636 13.2187 37.5715 12.71 37.06C12.1935 36.5608 11.5033 36.2818 10.785 36.2818C10.0667 36.2818 9.37648 36.5608 8.85998 37.06L7.85998 38.06C6.91 39.0149 6.26405 40.2297 6.0036 41.5513C5.74314 42.8728 5.87984 44.2418 6.39646 45.4858C6.91307 46.7297 7.78647 47.7928 8.90649 48.541C10.0265 49.2892 11.343 49.689 12.69 49.69L12.81 49.76ZM18.66 48.81C18.0274 49.4426 17.6721 50.3005 17.6721 51.195C17.6721 52.0896 18.0274 52.9475 18.66 53.58C19.2925 54.2126 20.1504 54.5679 21.045 54.5679C21.9395 54.5679 22.7974 54.2126 23.43 53.58L24.43 52.58C24.5694 52.4975 24.7324 52.4637 24.8931 52.484C25.0539 52.5043 25.2033 52.5775 25.3179 52.6921C25.4325 52.8067 25.5057 52.9561 25.526 53.1169C25.5463 53.2776 25.5125 53.4406 25.43 53.58L24.43 54.58C23.9893 55.0267 23.4648 55.3821 22.8865 55.6258C22.3082 55.8695 21.6875 55.9966 21.06 56C20.1065 56.0027 19.1737 55.7225 18.3795 55.195C17.5853 54.6674 16.9654 53.9161 16.5982 53.0362C16.231 52.1562 16.1331 51.1872 16.3167 50.2516C16.5004 49.316 16.9574 48.4558 17.63 47.78L28.52 36.89C28.87 37.24 29.23 37.59 29.57 37.89L18.66 48.81ZM29.8 42.55C29.4842 42.8609 29.2332 43.2313 29.0615 43.6398C28.8899 44.0484 28.801 44.4869 28.8 44.93C28.8026 45.823 29.1585 46.6786 29.7899 47.31C30.4214 47.9415 31.277 48.2974 32.17 48.3C32.6116 48.2988 33.0486 48.2098 33.4554 48.0381C33.8623 47.8664 34.231 47.6155 34.54 47.3L35.46 46.38C35.5994 46.2975 35.7624 46.2637 35.9231 46.284C36.0839 46.3043 36.2333 46.3775 36.3479 46.4921C36.4625 46.6067 36.5357 46.7561 36.556 46.9169C36.5763 47.0776 36.5425 47.2406 36.46 47.38L35.54 48.3C35.0932 48.7449 34.5627 49.0968 33.9791 49.3354C33.3955 49.574 32.7704 49.6945 32.14 49.69C31.1886 49.688 30.2591 49.405 29.4679 48.8766C28.6768 48.3482 28.0593 47.598 27.6929 46.72C27.3266 45.842 27.2277 44.8754 27.4086 43.9414C27.5895 43.0074 28.0423 42.1477 28.71 41.47L31.1 39.2C31.489 39.5001 31.8928 39.7804 32.31 40.04L29.8 42.55ZM52.34 32.48C52.2784 33.2855 51.9059 34.0355 51.3012 34.5711C50.6964 35.1068 49.907 35.3861 49.1 35.35L44.71 35.15C47.9189 30.8141 50.7493 26.2105 53.17 21.39L52.34 32.48ZM28.65 14.9C28.6113 14.0923 28.8897 13.3015 29.4259 12.6962C29.9621 12.0909 30.7135 11.7191 31.52 11.66L42.61 10.83C37.7895 13.2507 33.1859 16.0811 28.85 19.29L28.65 14.9ZM26.24 24C29.91 20.29 50 7.00001 53.49 10.51C56.83 13.85 44.61 33.19 40 37.76C38.33 39.43 36.77 39.87 34.94 39.19C33.11 38.51 31.06 36.66 29.18 34.79C24.64 30.21 22.92 27.28 26.24 24ZM19.08 36.62C18.1265 36.6227 17.1937 36.3425 16.3995 35.815C15.6053 35.2874 14.9854 34.5361 14.6182 33.6562C14.251 32.7762 14.1531 31.8072 14.3367 30.8716C14.5204 29.936 14.9774 29.0758 15.65 28.4L16.57 27.48C16.7094 27.3975 16.8724 27.3637 17.0331 27.384C17.1939 27.4043 17.3433 27.4775 17.4579 27.5921C17.5725 27.7067 17.6457 27.8561 17.666 28.0169C17.6863 28.1776 17.6525 28.3406 17.57 28.48L16.65 29.4C16.0174 30.0326 15.6621 30.8905 15.6621 31.785C15.6621 32.6796 16.0174 33.5375 16.65 34.17C17.2825 34.8026 18.1404 35.1579 19.035 35.1579C19.9295 35.1579 20.7874 34.8026 21.42 34.17L23.9 31.69C24.1652 32.105 24.4523 32.5055 24.76 32.89L22.45 35.2C22.0093 35.6467 21.4847 36.0021 20.9065 36.2458C20.3282 36.4895 19.7075 36.6166 19.08 36.62ZM9.38998 39.54L10.39 38.54C10.5294 38.4575 10.6924 38.4237 10.8531 38.444C11.0139 38.4643 11.1633 38.5375 11.2779 38.6521C11.3925 38.7667 11.4657 38.9161 11.486 39.0769C11.5063 39.2376 11.4725 39.4006 11.39 39.54L10.39 40.54C10.0733 40.8502 9.82168 41.2205 9.64996 41.6292C9.47824 42.0379 9.38986 42.4767 9.38998 42.92C9.39746 43.814 9.75672 44.669 10.39 45.3C10.7021 45.6133 11.0731 45.8618 11.4815 46.0314C11.8899 46.201 12.3278 46.2883 12.77 46.2883C13.2122 46.2883 13.6501 46.201 14.0585 46.0314C14.4669 45.8618 14.8378 45.6133 15.15 45.3L23.85 36.6L26.05 34.4C26.39 34.76 26.72 35.12 27.05 35.45L16.22 46.37C15.7726 46.814 15.242 47.1653 14.6585 47.4039C14.0751 47.6424 13.4503 47.7634 12.82 47.76C11.8686 47.758 10.9391 47.475 10.1479 46.9466C9.35678 46.4183 8.7393 45.668 8.37293 44.79C8.00657 43.912 7.90765 42.9454 8.08859 42.0114C8.26952 41.0774 8.72225 40.2177 9.38998 39.54Z" fill="black"/>
<path d="M43.56 20C43.6533 20.0968 43.7651 20.1738 43.8889 20.2264C44.0126 20.279 44.1456 20.3061 44.28 20.3061C44.4144 20.3061 44.5475 20.279 44.6712 20.2264C44.7949 20.1738 44.9067 20.0968 45 20C45.1863 19.8127 45.2908 19.5592 45.2908 19.295C45.2908 19.0309 45.1863 18.7774 45 18.59C44.9074 18.4955 44.7971 18.4201 44.6754 18.3682C44.5537 18.3162 44.423 18.2888 44.2906 18.2874C44.1583 18.286 44.027 18.3107 43.9042 18.3601C43.7814 18.4094 43.6696 18.4825 43.575 18.575C43.4805 18.6676 43.4051 18.7779 43.3532 18.8996C43.3012 19.0214 43.2738 19.1521 43.2724 19.2844C43.271 19.4168 43.2957 19.5481 43.345 19.6708C43.3944 19.7936 43.4674 19.9055 43.56 20Z" fill="black"/>
<path d="M40.5 34.25C40.6862 34.0626 40.7908 33.8092 40.7908 33.545C40.7908 33.2808 40.6862 33.0274 40.5 32.84C40.407 32.7463 40.2964 32.6719 40.1746 32.6211C40.0527 32.5703 39.922 32.5442 39.79 32.5442C39.658 32.5442 39.5273 32.5703 39.4054 32.6211C39.2835 32.6719 39.1729 32.7463 39.08 32.84C38.8937 33.0274 38.7892 33.2808 38.7892 33.545C38.7892 33.8092 38.8937 34.0626 39.08 34.25C39.1729 34.3437 39.2835 34.4181 39.4054 34.4689C39.5273 34.5196 39.658 34.5458 39.79 34.5458C39.922 34.5458 40.0527 34.5196 40.1746 34.4689C40.2964 34.4181 40.407 34.3437 40.5 34.25Z" fill="black"/>
<path d="M36.53 20.5801C36.717 20.3918 36.8215 20.1369 36.8206 19.8715C36.8196 19.6062 36.7133 19.3521 36.525 19.1651C36.3367 18.9781 36.0818 18.8736 35.8165 18.8745C35.5511 18.8755 35.297 18.9818 35.11 19.1701C34.9238 19.3574 34.8192 19.6109 34.8192 19.8751C34.8192 20.1393 34.9238 20.3927 35.11 20.5801C35.203 20.6738 35.3136 20.7482 35.4354 20.799C35.5573 20.8497 35.688 20.8759 35.82 20.8759C35.952 20.8759 36.0827 20.8497 36.2046 20.799C36.3264 20.7482 36.437 20.6738 36.53 20.5801Z" fill="black"/>
<path d="M51.91 15.7701C52.0738 15.5788 52.1594 15.3327 52.1497 15.081C52.14 14.8294 52.0356 14.5906 51.8575 14.4125C51.6794 14.2344 51.4407 14.1301 51.189 14.1204C50.9374 14.1107 50.6913 14.1963 50.5 14.3601C50.3362 14.5514 50.2505 14.7975 50.2603 15.0491C50.27 15.3008 50.3743 15.5396 50.5524 15.7176C50.7305 15.8957 50.9693 16.0001 51.2209 16.0098C51.4726 16.0195 51.7187 15.9339 51.91 15.7701Z" fill="black"/>
<path d="M29.35 29.32C29.5383 29.1317 29.644 28.8763 29.644 28.61C29.644 28.3437 29.5383 28.0884 29.35 27.9C29.1617 27.7117 28.9063 27.606 28.64 27.606C28.3737 27.606 28.1183 27.7117 27.93 27.9C27.7417 28.0884 27.6359 28.3437 27.6359 28.61C27.6359 28.8763 27.7417 29.1317 27.93 29.32C28.1183 29.5084 28.3737 29.6141 28.64 29.6141C28.9063 29.6141 29.1617 29.5084 29.35 29.32Z" fill="black"/>
<path d="M44.8399 26.4199C45.0262 26.2325 45.1307 25.9791 45.1307 25.7149C45.1307 25.4507 45.0262 25.1973 44.8399 25.0099C44.747 24.9162 44.6364 24.8418 44.5145 24.791C44.3927 24.7403 44.262 24.7141 44.1299 24.7141C43.9979 24.7141 43.8672 24.7403 43.7454 24.791C43.6235 24.8418 43.5129 24.9162 43.4199 25.0099C43.2337 25.1973 43.1292 25.4507 43.1292 25.7149C43.1292 25.9791 43.2337 26.2325 43.4199 26.4199C43.5129 26.5136 43.6235 26.588 43.7454 26.6388C43.8672 26.6896 43.9979 26.7157 44.1299 26.7157C44.262 26.7157 44.3927 26.6896 44.5145 26.6388C44.6364 26.588 44.747 26.5136 44.8399 26.4199Z" fill="black"/>
<path d="M36.13 27.8601C36.2237 27.7671 36.2981 27.6565 36.3489 27.5347C36.3996 27.4128 36.4258 27.2821 36.4258 27.1501C36.4258 27.0181 36.3996 26.8874 36.3489 26.7655C36.2981 26.6436 36.2237 26.533 36.13 26.4401C36.037 26.3464 35.9264 26.272 35.8046 26.2212C35.6827 26.1704 35.552 26.1443 35.42 26.1443C35.288 26.1443 35.1573 26.1704 35.0354 26.2212C34.9135 26.272 34.8029 26.3464 34.71 26.4401C34.5217 26.6284 34.4159 26.8838 34.4159 27.1501C34.4159 27.4164 34.5217 27.6718 34.71 27.8601C34.8983 28.0484 35.1537 28.1542 35.42 28.1542C35.6863 28.1542 35.9417 28.0484 36.13 27.8601Z" fill="black"/>
</svg>
