<svg width="127" height="131" viewBox="0 0 127 131" fill="none" xmlns="http://www.w3.org/2000/svg">
<path d="M113.279 72.971L97.7346 88.3067L102.447 89.7216C95.6923 101.175 83.4803 106.217 69.5725 107.205V49.125H82.4711C83.5457 50.2417 85.0339 50.9236 86.6882 50.9236C89.9631 50.9236 92.6249 48.1895 92.6249 44.7998C92.6249 41.4135 89.9631 38.6679 86.6882 38.6679C85.0515 38.6679 83.5633 39.358 82.4711 40.4763H69.5725V33.4747C75.8398 30.9498 80.3203 24.691 80.3203 17.3336C80.3219 7.79056 72.782 0 63.5016 0C54.2228 0 46.6877 7.79056 46.6877 17.3336C46.6877 25.1917 51.8181 31.7898 58.7928 33.9013V40.4681H44.5289C43.4495 39.3596 41.9629 38.6679 40.3198 38.6679C37.0417 38.6679 34.3751 41.4135 34.3751 44.7998C34.3751 48.1895 37.0417 50.9236 40.3198 50.9236C41.9613 50.9236 43.4495 50.2417 44.5289 49.125H58.7928V107.17C44.1377 106.044 31.346 100.159 24.9254 87.75L29.6183 86.6844L15.0894 70.344L8.61932 91.4954L14.0978 90.2321C22.1056 108.33 40.3613 122.906 60.9771 124.313L64.177 131L67.369 124.329C86.9772 122.974 104.431 109.677 113.063 92.9284L118.379 94.5326L113.279 72.971ZM54.8807 17.3336C54.8807 12.4254 58.7496 8.44279 63.508 8.44279C68.2647 8.44279 72.1353 12.4254 72.1353 17.3336C72.1353 22.2418 68.2568 26.2326 63.5 26.2326C58.7417 26.2343 54.8807 22.2434 54.8807 17.3336Z" fill="#010002"/>
</svg>
