<svg width="77" height="76" viewBox="0 0 77 76" fill="none" xmlns="http://www.w3.org/2000/svg">
<path d="M60.9583 25.3333C64.4875 25.3333 67.375 22.4833 67.375 19C67.375 15.5166 64.4875 12.6666 60.9583 12.6666C57.4292 12.6666 54.5417 15.5166 54.5417 19C54.5417 22.4833 57.4292 25.3333 60.9583 25.3333Z" fill="black"/>
<path d="M54.5417 44.3333C51.6542 44.3333 50.4029 43.3517 48.51 41.8633C46.3283 40.1533 43.6333 38 38.4679 38C33.3025 38 30.6396 40.1533 28.4579 41.8633C26.565 43.3517 25.3138 44.3333 22.4263 44.3333C19.5388 44.3333 18.2875 43.3517 16.4267 41.8633C14.245 40.1533 11.55 38 6.41667 38V44.3333C9.30417 44.3333 10.5554 45.315 12.4163 46.8033C14.5979 48.5133 17.2929 50.6667 22.4263 50.6667C27.5596 50.6667 30.2867 48.5133 32.4363 46.8033C34.3292 45.315 35.5804 44.3333 38.4358 44.3333C41.2913 44.3333 42.6388 45.3783 44.4675 46.8033C46.6492 48.5133 49.3442 50.6667 54.5096 50.6667C59.675 50.6667 62.37 48.5133 64.5517 46.8033C66.4446 45.315 67.6958 44.3333 70.5833 44.3333V38C65.45 38 62.7229 40.1533 60.5413 41.8633C58.7125 43.2883 57.3971 44.3333 54.5096 44.3333H54.5417Z" fill="black"/>
<path d="M35.3879 17.2584L41.9329 23.7184L33.7196 32.395C35.035 31.9517 36.575 31.6667 38.4679 31.6667C43.6013 31.6667 46.3283 33.8201 48.51 35.5301C50.4029 37.0184 51.6542 38 54.5417 38C57.4292 38 58.7446 36.9551 60.5733 35.5301C60.9904 35.1817 61.4717 34.8334 61.9529 34.4851L39.9758 12.7934C38.7567 11.5584 36.9921 10.925 35.2917 10.925C33.5592 10.9567 31.8588 11.7167 30.7038 12.9834L16.94 27.93L21.6883 32.205L35.4521 17.2584H35.3879Z" fill="black"/>
<path d="M54.5417 60.1667C51.6542 60.1667 50.4029 59.185 48.51 57.6967C46.3283 55.9867 43.6333 53.8334 38.4679 53.8334C33.3025 53.8334 30.6396 55.9867 28.4579 57.6967C26.565 59.185 25.3138 60.1667 22.4263 60.1667C19.5388 60.1667 18.2875 59.185 16.4267 57.6967C14.245 55.9867 11.55 53.8334 6.41667 53.8334V60.1667C9.30417 60.1667 10.5554 61.1484 12.4163 62.6367C14.5979 64.3467 17.2929 66.5 22.4263 66.5C27.5596 66.5 30.2867 64.3467 32.4363 62.6367C34.3292 61.1484 35.5804 60.1667 38.4358 60.1667C41.2913 60.1667 42.6388 61.2117 44.4675 62.6367C46.6492 64.3467 49.3442 66.5 54.5096 66.5C59.675 66.5 62.37 64.3467 64.5517 62.6367C66.4446 61.1484 67.6958 60.1667 70.5833 60.1667V53.8334C65.45 53.8334 62.7229 55.9867 60.5413 57.6967C58.7125 59.1217 57.3971 60.1667 54.5096 60.1667H54.5417Z" fill="black"/>
</svg>
