<svg width="89" height="89" viewBox="0 0 89 89" fill="none" xmlns="http://www.w3.org/2000/svg">
<g clip-path="url(#clip0_2049_169)">
<path d="M83.2734 38.9778C79.7412 32.3571 77.875 24.888 77.875 17.3828V6.95312V1.39062C77.875 0.623 77.252 0 76.4844 0H68.1406C67.373 0 66.75 0.623 66.75 1.39062V6.95312V17.3828C66.75 24.888 64.8838 32.3571 61.3516 38.9778C57.9918 45.276 56.0658 52.2958 55.7015 59.4186C55.6653 59.541 55.625 59.6634 55.625 59.7969V61.8828V82.0469V87.6094C55.625 88.377 56.248 89 57.0156 89H87.6094C88.377 89 89 88.377 89 87.6094V61.8828C89 53.9215 87.0197 46.0019 83.2734 38.9778ZM69.5312 2.78125H75.0938V5.5625H69.5312V2.78125ZM58.4062 66.75H68.1406V63.9688H58.4062V61.8828C58.4062 61.6506 58.4243 61.4197 58.4285 61.1875H75.0938V80.6562H58.4062V66.75ZM86.2188 86.2188H58.4062V83.4375H76.4844C77.252 83.4375 77.875 82.8145 77.875 82.0469V59.7969C77.875 59.0293 77.252 58.4062 76.4844 58.4062H58.555C59.039 52.0886 60.819 45.8851 63.8047 40.2878C67.551 33.2638 69.5312 25.3441 69.5312 17.3828V8.34375H75.0938V17.3828C75.0938 25.3441 77.074 33.2638 80.8203 40.2878C84.3525 46.9086 86.2188 54.3776 86.2188 61.8828V86.2188Z" fill="black"/>
<path d="M45.8906 27.8125H31.9844C31.2168 27.8125 30.5938 28.4355 30.5938 29.2031V55.625C30.5938 59.751 33.6072 63.1775 37.5469 63.8436V86.2188H31.9844V89H45.8906V86.2188H40.3281V63.8436C44.2678 63.1789 47.2812 59.7524 47.2812 55.625V29.2031C47.2812 28.4355 46.6582 27.8125 45.8906 27.8125ZM44.5 55.625C44.5 58.6927 42.0052 61.1875 38.9375 61.1875C35.8698 61.1875 33.375 58.6927 33.375 55.625V42.98C37.4398 42.5184 41.2056 40.7217 44.1426 37.7847L44.5 37.4273V55.625ZM44.5 34.0703L44.2121 33.7825L42.1763 35.8183C39.7663 38.2269 36.6958 39.7232 33.375 40.171V30.5938H44.5V34.0703Z" fill="black"/>
<path d="M9.73438 0H6.95312V5.5625H9.73438V0Z" fill="black"/>
<path d="M9.73438 11.125H6.95312V16.6875H9.73438V11.125Z" fill="black"/>
<path d="M16.6875 6.95312H11.125V9.73438H16.6875V6.95312Z" fill="black"/>
<path d="M5.5625 6.95312H0V9.73438H5.5625V6.95312Z" fill="black"/>
<path d="M20.8594 15.2969C18.5593 15.2969 16.6875 17.1687 16.6875 19.4688C16.6875 21.7688 18.5593 23.6406 20.8594 23.6406C23.1595 23.6406 25.0312 21.7688 25.0312 19.4688C25.0312 17.1687 23.1595 15.2969 20.8594 15.2969ZM20.8594 20.8594C20.0931 20.8594 19.4688 20.235 19.4688 19.4688C19.4688 18.7025 20.0931 18.0781 20.8594 18.0781C21.6256 18.0781 22.25 18.7025 22.25 19.4688C22.25 20.235 21.6256 20.8594 20.8594 20.8594Z" fill="black"/>
<path d="M44.5 0C40.666 0 37.5469 3.11917 37.5469 6.95312C37.5469 10.7871 40.666 13.9062 44.5 13.9062C48.334 13.9062 51.4531 10.7871 51.4531 6.95312C51.4531 3.11917 48.334 0 44.5 0ZM44.5 11.125C42.1999 11.125 40.3281 9.25322 40.3281 6.95312C40.3281 4.65303 42.1999 2.78125 44.5 2.78125C46.8001 2.78125 48.6719 4.65303 48.6719 6.95312C48.6719 9.25322 46.8001 11.125 44.5 11.125Z" fill="black"/>
<path d="M37.5469 25.0312C39.847 25.0312 41.7188 23.1595 41.7188 20.8594C41.7188 18.5593 39.847 16.6875 37.5469 16.6875C35.2468 16.6875 33.375 18.5593 33.375 20.8594C33.375 23.1595 35.2468 25.0312 37.5469 25.0312ZM37.5469 19.4688C38.3131 19.4688 38.9375 20.0931 38.9375 20.8594C38.9375 21.6256 38.3131 22.25 37.5469 22.25C36.7806 22.25 36.1562 21.6256 36.1562 20.8594C36.1562 20.0931 36.7806 19.4688 37.5469 19.4688Z" fill="black"/>
<path d="M22.25 27.8125H8.34375C7.57613 27.8125 6.95312 28.4355 6.95312 29.2031V48.6719V55.625C6.95312 60.2266 10.6953 63.9688 15.2969 63.9688V86.2188H9.73438V89H23.6406V86.2188H18.0781V63.482C21.3141 62.3334 23.6406 59.2504 23.6406 55.625V41.7188V29.2031C23.6406 28.4355 23.0176 27.8125 22.25 27.8125ZM20.8594 55.625C20.8594 58.6927 18.3646 61.1875 15.2969 61.1875C12.2292 61.1875 9.73438 58.6927 9.73438 55.625V50.025C9.89013 50.0166 10.0278 49.993 10.1794 49.9818C10.4617 49.961 10.7356 49.9318 11.0054 49.9012C11.3864 49.8567 11.7577 49.8038 12.1151 49.7413C12.3668 49.6968 12.6171 49.6509 12.8591 49.598C13.2082 49.5215 13.5433 49.4312 13.8729 49.3352C14.0926 49.2712 14.3151 49.21 14.5265 49.1391C14.8602 49.0265 15.1773 48.8972 15.4916 48.765C15.6723 48.6886 15.8601 48.619 16.0353 48.537C16.3941 48.3687 16.7348 48.181 17.0713 47.9891C17.1826 47.9251 17.3035 47.8695 17.412 47.8027C17.8515 47.5357 18.2742 47.2493 18.6844 46.9433C18.7957 46.8599 18.9014 46.7667 19.0112 46.6819C19.3088 46.4497 19.6036 46.2132 19.8915 45.9629C20.0417 45.8308 20.1891 45.6904 20.3379 45.5527C20.5117 45.3928 20.6883 45.2398 20.8608 45.0729V55.625H20.8594ZM20.8594 41.143L19.231 42.7715C18.9 43.1024 18.5676 43.4167 18.2325 43.7171C18.1198 43.8186 18.003 43.9076 17.889 44.0049C17.6623 44.1982 17.4357 44.3901 17.2034 44.5681C17.0644 44.6752 16.9183 44.7712 16.7765 44.8727C16.5596 45.0257 16.3426 45.1786 16.1187 45.3177C15.9616 45.415 15.7975 45.504 15.6362 45.5958C15.4137 45.721 15.187 45.8433 14.9534 45.956C14.7782 46.0394 14.5974 46.1173 14.4166 46.1938C14.1774 46.2953 13.9327 46.3899 13.6796 46.4775C13.4863 46.5442 13.2888 46.6068 13.0872 46.6652C12.8243 46.7417 12.5504 46.8098 12.2723 46.8724C12.0595 46.9197 11.844 46.967 11.6201 47.0059C11.3239 47.0587 11.011 47.0977 10.6953 47.1352C10.4617 47.163 10.2322 47.1923 9.98747 47.2117C9.90403 47.2173 9.81503 47.2173 9.73438 47.2228V30.5938H20.8594V41.143Z" fill="black"/>
<path d="M68.1406 76.4844H65.3594V79.2656H68.1406V76.4844Z" fill="black"/>
<path d="M73.7031 76.4844H70.9219V79.2656H73.7031V76.4844Z" fill="black"/>
<path d="M68.1406 70.9219H65.3594V73.7031H68.1406V70.9219Z" fill="black"/>
<path d="M73.7031 70.9219H70.9219V73.7031H73.7031V70.9219Z" fill="black"/>
<path d="M37.5469 54.2344H34.7656V57.0156H37.5469V54.2344Z" fill="black"/>
<path d="M43.1094 54.2344H40.3281V57.0156H43.1094V54.2344Z" fill="black"/>
<path d="M37.5469 48.6719H34.7656V51.4531H37.5469V48.6719Z" fill="black"/>
<path d="M43.1094 48.6719H40.3281V51.4531H43.1094V48.6719Z" fill="black"/>
</g>
<defs>
<clipPath id="clip0_2049_169">
<rect width="89" height="89" fill="white"/>
</clipPath>
</defs>
</svg>
