<svg width="132" height="128" viewBox="0 0 132 128" fill="none" xmlns="http://www.w3.org/2000/svg">
<g clip-path="url(#clip0_2047_127)">
<path d="M111.13 66.1617C111.13 67.3615 110.124 68.3368 108.887 68.3368C107.648 68.3368 106.643 67.3615 106.643 66.1617C106.643 64.9487 107.648 63.9867 108.887 63.9867C110.125 63.9879 111.13 64.9499 111.13 66.1617ZM132 25.5993V102.4C132 116.48 120.122 128 105.6 128H26.3993C11.8784 128 0 116.48 0 102.4V25.5993C0 11.5184 11.8784 0 26.3993 0H105.598C120.122 0 132 11.5184 132 25.5993ZM117.897 67.8865C117.97 67.2686 117.575 66.624 116.427 65.8938C115.358 65.2251 114.263 64.5806 113.205 63.9312C110.878 62.4912 108.423 61.1648 106.096 59.6029C99.3087 55.0404 91.2578 53.4001 83.2082 52.3524C79.9085 51.9433 76.2216 52.1159 73.4496 50.1376C71.31 48.5999 67.5708 43.3277 63.4981 41.0368C62.7924 40.6276 59.4739 38.9994 59.4739 38.9994C59.4739 38.9994 61.3709 43.9988 61.8103 45.0054C62.8197 47.3277 61.2526 49.318 60.6017 51.5305C60.1784 52.9994 63.7085 52.6711 63.889 54.0338C64.1528 56.0616 57.8695 56.7616 54.3183 57.4532C49.0034 58.4623 42.8196 60.3911 37.5283 58.7001C31.2698 56.7495 26.8162 52.8908 22.3278 48.513C24.4164 57.9855 30.223 63.4375 30.4807 64.5878C30.7508 65.8624 29.8135 66.1243 28.9696 66.9499C27.1013 68.7375 18.9372 77.8491 18.911 80.7254C21.2536 80.3874 24.0766 78.3862 26.1366 77.2251C28.4344 75.9493 37.1773 69.6693 39.6269 68.688C40.1808 68.4623 46.9682 66.5383 47.0255 67.376C47.1263 68.688 46.5786 68.9753 46.7554 69.5257C47.084 70.5745 48.8465 71.6005 49.6917 72.3126C51.8824 74.1497 54.3519 75.7514 55.8979 78.175C58.0599 81.5631 58.1595 85.2118 58.7732 88.9873C60.2195 88.8244 61.6933 85.9191 62.4812 84.7761C63.2293 83.6886 65.949 79.038 66.9796 78.7375C67.953 78.4514 70.9764 80.0869 72.0593 80.4007C76.2167 81.5932 80.257 82.3005 84.4915 82.3005C89.5837 82.3126 102.957 82.6687 112.884 75.5498C113.98 74.7628 116.59 71.7248 116.59 71.7248C116.59 71.7248 116.043 70.9125 115.062 70.6119C116.363 69.7755 117.782 68.8992 117.897 67.8865Z" fill="#010002"/>
</g>
<defs>
<clipPath id="clip0_2047_127">
<rect width="132" height="128" fill="white"/>
</clipPath>
</defs>
</svg>
