<svg width="116" height="116" viewBox="0 0 116 116" fill="none" xmlns="http://www.w3.org/2000/svg">
<g clip-path="url(#clip0_2046_104)">
<path d="M1.60229 81.4646L7.62705 84.825C8.00767 84.1616 17.2949 68.6575 46.9293 71.6372C58.9715 72.8552 68.2733 76.8428 76.4767 80.3626C83.5817 83.4113 90.1683 86.2351 96.7984 86.2351C102.624 86.2351 108.478 84.0565 114.749 77.9339L109.917 73.0111C106.687 76.1685 103.697 77.9629 100.706 78.7785C96.4468 75.545 88.4283 67.744 91.3102 56.4231C93.931 46.1245 105.314 40.2375 105.426 40.1759L110.106 37.7979L104.922 36.9424C104.567 36.8844 70.2888 31.7006 59.9322 67.0081C55.0529 61.5126 52.4755 54.1394 52.4755 45.414C52.4755 19.3793 82.1498 16.6388 83.4113 16.5336L89.7224 16.0153L84.0203 13.2675C83.6977 13.1116 51.3228 -2.09887 28.826 19.2415C9.87817 37.2179 10.4074 63.6369 11.1215 72.0215C4.5603 76.3932 1.82342 81.0695 1.60229 81.4646Z" fill="black"/>
<path d="M46.7299 93.5105C58.4677 94.6958 67.6244 98.6254 75.6973 102.087C82.8313 105.15 89.7551 108.119 96.8311 108.116C103.062 108.116 109.413 105.814 116.131 99.2525L108.533 91.4732C99.7274 100.075 93.7861 98.0163 79.9821 92.0967C71.6228 88.5116 61.2191 84.0456 47.8174 82.6935C12.1366 79.0721 0.348055 99.5135 -0.137695 100.383L9.37068 105.665C9.45406 105.509 18.0526 90.625 46.7299 93.5105Z" fill="black"/>
</g>
<defs>
<clipPath id="clip0_2046_104">
<rect width="116" height="116" fill="white"/>
</clipPath>
</defs>
</svg>
