<svg width="128" height="128" viewBox="0 0 128 128" fill="none" xmlns="http://www.w3.org/2000/svg">
<path d="M102.987 29.8669C96.48 29.6536 90.0266 34.6669 88 42.6669C85.3333 53.3336 85.3333 53.3336 80 58.6669C69.3333 69.3336 53.3333 74.6669 21.3333 80.0002C16 80.8536 13.3333 82.6669 10.6666 85.3336C21.3333 85.3336 32 85.3336 24 93.3336L16 101.334H32L42.6666 90.6669C53.3333 96.0002 60.4266 96.0002 71.0933 90.6669L74.6666 101.334H90.6666L85.3333 85.3336C85.3333 85.3336 90.6666 64.0002 96 58.6669C101.333 53.3336 101.333 58.6669 106.667 58.6669C112 58.6669 117.333 53.3336 117.333 45.3336C117.333 42.6669 117.333 37.3336 109.333 32.0002C107.467 30.7202 105.28 29.9736 102.987 29.8669ZM48 32.0002C39.513 32.0002 31.3737 35.3717 25.3725 41.3728C19.3714 47.374 16 55.5133 16 64.0002C16 67.2002 16.6933 69.7602 17.2266 72.5336C48.8 67.3069 65.5466 61.8136 74.2933 53.0136L76.96 50.3469C71.68 39.1469 60.3733 32.0002 48 32.0002Z" fill="black"/>
</svg>
