<svg width="140" height="140" viewBox="0 0 140 140" fill="none" xmlns="http://www.w3.org/2000/svg">
<path d="M64.737 14.4612C63.661 13.8463 62.3401 13.8463 61.2641 14.4612L38.9959 27.1858C36.5253 28.5976 35.0006 31.225 35.0006 34.0705C35.0006 38.1352 38.0589 41.4855 42 41.9459V57.3011C37.6881 59.3068 34.5401 63.4506 33.9842 68.454L28.4538 118.227C27.9931 122.373 31.2389 126 35.411 126H90.5898C94.7625 126 98.0084 122.373 97.5471 118.227L92.0171 68.454C91.4613 63.4502 88.3127 59.3061 84 57.3006V56.0897C84.0007 56.0599 84.0007 56.03 84.0007 56.0001V42V41.946C87.9417 41.4859 91.0007 38.1354 91.0007 34.0705C91.0007 31.225 89.4761 28.5976 87.0051 27.1858L64.737 14.4612ZM77 56H49.0006V42H77V56ZM38.6156 90.1586L85.9817 77.5271L87.4664 90.8866L37.0406 104.334L38.6156 90.1586ZM115.501 49H101.501C99.5673 49 98.0007 47.433 98.0007 45.5C98.0007 43.567 99.5673 42 101.501 42H115.501C117.433 42 119.001 43.567 119.001 45.5C119.001 47.433 117.433 49 115.501 49ZM110.975 26.9748C112.342 25.608 112.342 23.392 110.975 22.0251C109.609 20.6583 107.393 20.6583 106.025 22.0251L99.0255 29.0252C97.6591 30.392 97.6591 32.608 99.0255 33.9748C100.393 35.3417 102.609 35.3417 103.975 33.9748L110.975 26.9748ZM110.975 68.9748C112.342 67.608 112.342 65.392 110.975 64.0252L103.975 57.0252C102.609 55.6583 100.393 55.6583 99.0255 57.0252C97.6591 58.392 97.6591 60.608 99.0255 61.9748L106.025 68.9748C107.393 70.3416 109.609 70.3416 110.975 68.9748Z" fill="#212121"/>
</svg>
