<svg width="87" height="87" viewBox="0 0 87 87" fill="none" xmlns="http://www.w3.org/2000/svg">
<path d="M29 50.75H58V61.625H29V50.75Z" fill="black"/>
<path d="M58 22.0763V16.3125C58 11.31 53.94 7.25 48.9375 7.25H38.0625C33.06 7.25 29 11.31 29 16.3125V22.0763C18.7413 23.8162 10.875 32.7337 10.875 43.5V72.5C10.875 76.4875 14.1375 79.75 18.125 79.75H21.75V50.75C21.75 46.7625 25.0125 43.5 29 43.5H58C61.9875 43.5 65.25 46.7625 65.25 50.75V79.75H68.875C72.8625 79.75 76.125 76.4875 76.125 72.5V43.5C76.125 32.7337 68.2588 23.8162 58 22.0763ZM50.75 21.75H36.25V16.3125C36.25 15.2975 37.0475 14.5 38.0625 14.5H48.9375C49.9525 14.5 50.75 15.2975 50.75 16.3125V21.75Z" fill="black"/>
<path d="M29 68.875H58V79.75H29V68.875Z" fill="black"/>
</svg>
