<svg width="140" height="124" viewBox="0 0 140 124" fill="none" xmlns="http://www.w3.org/2000/svg">
<path d="M62.2222 3.87497C62.2222 2.18401 63.316 0.688021 64.9445 0.179524C66.5729 -0.328925 68.3229 0.267583 69.2951 1.65314L123.74 79.1468C124.566 80.3336 124.663 81.8836 124.007 83.1671C123.326 84.4507 121.795 85.25 120.556 85.25H66.1111C63.9722 85.25 62.2222 83.5062 62.2222 81.375V3.87497ZM51.5521 23.3807C53.2535 23.8312 54.4444 25.357 54.4444 27.125V81.375C54.4444 83.5062 52.6944 85.25 50.5556 85.25H19.4444C18.059 85.25 16.7757 84.3054 16.0806 83.3125C15.3854 82.1257 15.3806 80.6484 16.0684 79.4617L47.1771 25.2117C48.0521 23.6762 49.8507 22.9303 51.5521 23.3807ZM1.38979 97.9164C0.692222 95.4461 2.55694 93 5.13333 93H134.872C137.448 93 139.319 95.4461 138.615 97.9164L137.642 101.404C133.851 114.773 121.625 124 107.674 124H32.1076C18.3799 124 6.14201 114.773 2.36906 101.404L1.38979 97.9164Z" fill="black"/>
</svg>
