<svg width="64" height="64" viewBox="0 0 64 64" fill="none" xmlns="http://www.w3.org/2000/svg">
<path d="M27.4 39.5999V55.0999" stroke="#4C5159" stroke-width="2" stroke-miterlimit="10"/>
<path d="M20.9 55.0999H34" stroke="#4C5159" stroke-width="2" stroke-miterlimit="10"/>
<path d="M41.4 22C41.6 22 41.7 22.2 41.6 22.3L28.1 39.6C27.7 40.1 27.1 40.1 26.7 39.6L12.7 22.3C12.6 22.2 12.7 22 12.8 22H41.4Z" stroke="#4C5159" stroke-width="2" stroke-miterlimit="10"/>
<path d="M30.2001 33.9001L28.8 32.3" stroke="#4C5159" stroke-width="2" stroke-miterlimit="10"/>
<path d="M27.9 27.8999L26.1 25.8999C25.6 25.3999 24.5 25.0999 24.5 25.0999C24.5 25.6999 24.5 26.3999 23.7 27.0999C22.9 27.7999 21.6 27.5999 21.6 27.5999C21.6 28.1999 21.8 28.6999 22.2 29.1999L24 31.1999C24.9 32.2999 26.5 32.3999 27.6 31.3999C28.7 30.5999 28.8 28.8999 27.9 27.8999Z" stroke="#4C5159" stroke-width="2" stroke-miterlimit="10"/>
<path d="M22.4 25.7L8.90002 12.2" stroke="#4C5159" stroke-width="2" stroke-miterlimit="10"/>
<path d="M32.9 20.1V17.7C32.9 17.6 33 17.5 33.1 17.5H47.6C47.7 17.5 47.8 17.6 47.8 17.7V54.8C47.8 54.9 47.7 55 47.6 55H35.3" stroke="#4C5159" stroke-width="2" stroke-miterlimit="10"/>
<path d="M32.9 37.0999V53.3999" stroke="#4C5159" stroke-width="2" stroke-miterlimit="10"/>
<path d="M36.3 20.2999V13.9999L26.9 8.8999" stroke="#4C5159" stroke-width="2" stroke-miterlimit="10"/>
<path d="M37.3 30.2998H47.4001" stroke="#4C5159" stroke-width="2" stroke-miterlimit="10"/>
<path d="M37.5 50.4998V48.2998" stroke="#4C5159" stroke-width="2" stroke-miterlimit="10"/>
<path d="M42.7001 46.2999V44.2" stroke="#4C5159" stroke-width="2" stroke-miterlimit="10"/>
<path d="M42.7001 39.1V37" stroke="#4C5159" stroke-width="2" stroke-miterlimit="10"/>
<path d="M37.5 43.1999V41.0999" stroke="#4C5159" stroke-width="2" stroke-miterlimit="10"/>
<path d="M37.5 35.9999V33.8999" stroke="#4C5159" stroke-width="2" stroke-miterlimit="10"/>
<path d="M40.4 17.8C40.4 13.7 43.7 10.5 47.7 10.5C51.7 10.5 55 13.8 55 17.8C55 21.8 51.7 25.1 47.7 25.1" stroke="#4C5159" stroke-width="2" stroke-miterlimit="10"/>
</svg>
