<svg width="104" height="104" viewBox="0 0 104 104" fill="none" xmlns="http://www.w3.org/2000/svg">
<path d="M48.3275 54.7735C47.5746 54.7165 46.8547 54.441 46.2561 53.9808C45.6575 53.5206 45.2063 52.8957 44.9578 52.1827C44.7093 51.4697 44.6743 50.6997 44.8571 49.9671C45.0399 49.2345 45.4326 48.5712 45.987 48.0586C46.5414 47.546 47.2333 47.2064 47.9779 47.0814C48.7226 46.9563 49.4875 47.0514 50.1789 47.3549C50.8702 47.6584 51.458 48.1571 51.87 48.7898C52.282 49.4225 52.5004 50.1617 52.4984 50.9168C52.4533 51.9801 51.9894 52.9824 51.208 53.7049C50.4266 54.4275 49.3911 54.8116 48.3275 54.7735ZM48.3275 49.216C48.0034 49.2697 47.7013 49.415 47.4571 49.6348C47.2128 49.8545 47.0365 50.1396 46.949 50.4563C46.8614 50.773 46.8663 51.1081 46.963 51.4221C47.0596 51.7362 47.2441 52.016 47.4946 52.2286C47.7452 52.4412 48.0513 52.5777 48.3768 52.622C48.7024 52.6663 49.0339 52.6166 49.3321 52.4787C49.6303 52.3408 49.8829 52.1205 50.06 51.8438C50.2371 51.567 50.3314 51.2454 50.3317 50.9168C50.2875 50.4271 50.0527 49.9743 49.6778 49.6561C49.3029 49.3379 48.8179 49.1799 48.3275 49.216Z" fill="black"/>
<path d="M55.0658 58.3158C54.0455 58.3179 53.0474 58.0173 52.198 57.452C51.3485 56.8867 50.6859 56.0821 50.294 55.14C49.902 54.1979 49.7983 53.1607 49.9961 52.1597C50.1938 51.1587 50.6841 50.2389 51.4048 49.5166C52.1256 48.7944 53.0444 48.3022 54.045 48.1023C55.0456 47.9025 56.083 48.004 57.0258 48.3939C57.9687 48.7839 58.7747 49.4448 59.3418 50.2931C59.9089 51.1413 60.2117 52.1387 60.2117 53.1591C60.2117 54.5249 59.6699 55.8348 58.7051 56.8016C57.7404 57.7683 56.4316 58.3129 55.0658 58.3158ZM55.0658 50.1799C54.4735 50.1778 53.894 50.3516 53.4006 50.6793C52.9072 51.007 52.5223 51.4739 52.2947 52.0207C52.067 52.5675 52.0069 53.1696 52.1219 53.7506C52.237 54.3316 52.5219 54.8654 52.9408 55.2842C53.3596 55.703 53.8933 55.988 54.4743 56.103C55.0553 56.218 55.6574 56.1579 56.2042 55.9302C56.751 55.7026 57.2179 55.3177 57.5456 54.8243C57.8733 54.331 58.0471 53.7514 58.045 53.1591C58.045 52.369 57.7311 51.6112 57.1724 51.0525C56.6137 50.4938 55.8559 50.1799 55.0658 50.1799Z" fill="black"/>
<path d="M49.075 59.5183C48.3713 59.5204 47.6828 59.3136 47.0968 58.9239C46.5108 58.5343 46.0537 57.9795 45.7834 57.3298C45.5131 56.68 45.4419 55.9647 45.5786 55.2744C45.7154 54.5841 46.054 53.95 46.5516 53.4524C47.0492 52.9548 47.6833 52.6161 48.3736 52.4794C49.0639 52.3426 49.7793 52.4139 50.429 52.6842C51.0787 52.9545 51.6336 53.4116 52.0232 53.9976C52.4128 54.5836 52.6197 55.2721 52.6175 55.9758C52.6147 56.9144 52.2405 57.8138 51.5768 58.4775C50.9131 59.1413 50.0137 59.5154 49.075 59.5183ZM49.075 54.5891C48.8003 54.587 48.5312 54.6665 48.3017 54.8175C48.0722 54.9686 47.8928 55.1844 47.7862 55.4376C47.6796 55.6908 47.6506 55.9699 47.7029 56.2396C47.7551 56.5093 47.8863 56.7574 48.0798 56.9524C48.2733 57.1474 48.5204 57.2806 48.7896 57.3349C49.0589 57.3893 49.3383 57.3625 49.5923 57.2579C49.8463 57.1533 50.0635 56.9755 50.2164 56.7473C50.3692 56.519 50.4508 56.2505 50.4508 55.9758C50.4509 55.6099 50.3063 55.2588 50.0485 54.9991C49.7908 54.7393 49.4409 54.592 49.075 54.5891Z" fill="black"/>
<path d="M45.5866 101.833H33.4316C33.2725 101.836 33.1147 101.803 32.9697 101.737C32.8246 101.672 32.6958 101.575 32.5923 101.454C32.4889 101.333 32.4134 101.191 32.3712 101.037C32.3291 100.884 32.3212 100.723 32.3483 100.566C38.1875 66.6574 45.5 53.3541 45.76 52.8016C45.8311 52.6771 45.9261 52.5678 46.0394 52.48C46.1528 52.3923 46.2823 52.3277 46.4206 52.2899C46.5589 52.2522 46.7033 52.2421 46.8456 52.2602C46.9878 52.2783 47.1251 52.3242 47.2496 52.3953C47.374 52.4664 47.4833 52.5614 47.5711 52.6748C47.6589 52.7881 47.7235 52.9176 47.7612 53.056C47.7989 53.1943 47.809 53.3387 47.7909 53.4809C47.7729 53.6231 47.7269 53.7604 47.6558 53.8849C47.58 53.9824 40.43 67.1666 34.7208 99.6666H44.4708C44.4708 93.6757 45.1641 65.7907 54.5241 56.4632C54.7314 56.2857 54.998 56.193 55.2706 56.2035C55.5433 56.2141 55.8019 56.3271 55.9948 56.52C56.1878 56.713 56.3008 56.9716 56.3113 57.2443C56.3219 57.5169 56.2291 57.7835 56.0516 57.9907C46.41 67.6107 46.6375 100.403 46.6375 100.739C46.6375 101.026 46.5233 101.302 46.3202 101.505C46.117 101.708 45.8415 101.822 45.5541 101.822L45.5866 101.833Z" fill="black"/>
<path d="M52 63.0827H43.0517C42.7644 63.0827 42.4888 62.9685 42.2857 62.7654C42.0825 62.5622 41.9684 62.2867 41.9684 61.9993C41.9684 61.712 42.0825 61.4365 42.2857 61.2333C42.4888 61.0302 42.7644 60.916 43.0517 60.916H52C52.2874 60.916 52.5629 61.0302 52.7661 61.2333C52.9692 61.4365 53.0834 61.712 53.0834 61.9993C53.0834 62.2867 52.9692 62.5622 52.7661 62.7654C52.5629 62.9685 52.2874 63.0827 52 63.0827Z" fill="black"/>
<path d="M48.9016 71.6623H40.2349C39.9476 71.6623 39.6721 71.5481 39.4689 71.345C39.2657 71.1418 39.1516 70.8663 39.1516 70.5789C39.1516 70.2916 39.2657 70.0161 39.4689 69.8129C39.6721 69.6097 39.9476 69.4956 40.2349 69.4956H48.9016C49.1889 69.4956 49.4645 69.6097 49.6676 69.8129C49.8708 70.0161 49.9849 70.2916 49.9849 70.5789C49.9849 70.8663 49.8708 71.1418 49.6676 71.345C49.4645 71.5481 49.1889 71.6623 48.9016 71.6623Z" fill="black"/>
<path d="M47.1684 80.2424H37.9167C37.6294 80.2424 37.3538 80.1282 37.1507 79.9251C36.9475 79.7219 36.8334 79.4463 36.8334 79.159C36.8334 78.8717 36.9475 78.5961 37.1507 78.393C37.3538 78.1898 37.6294 78.0757 37.9167 78.0757H47.1575C47.4449 78.0757 47.7204 78.1898 47.9236 78.393C48.1267 78.5961 48.2409 78.8717 48.2409 79.159C48.2409 79.4463 48.1267 79.7219 47.9236 79.9251C47.7204 80.1282 47.4449 80.2424 47.1575 80.2424H47.1684Z" fill="black"/>
<path d="M46.15 88.8332H35.9342C35.6468 88.8332 35.3713 88.719 35.1681 88.5159C34.965 88.3127 34.8508 88.0372 34.8508 87.7498C34.8508 87.4625 34.965 87.187 35.1681 86.9838C35.3713 86.7806 35.6468 86.6665 35.9342 86.6665H46.15C46.4373 86.6665 46.7129 86.7806 46.916 86.9838C47.1192 87.187 47.2333 87.4625 47.2333 87.7498C47.2333 88.0372 47.1192 88.3127 46.916 88.5159C46.7129 88.719 46.4373 88.8332 46.15 88.8332Z" fill="black"/>
<path d="M45.6625 97.4025H34.2225C33.9352 97.4025 33.6596 97.2884 33.4565 97.0852C33.2533 96.882 33.1392 96.6065 33.1392 96.3192C33.1392 96.0319 33.2533 95.7563 33.4565 95.5531C33.6596 95.35 33.9352 95.2358 34.2225 95.2358H45.6625C45.9498 95.2358 46.2254 95.35 46.4285 95.5531C46.6317 95.7563 46.7458 96.0319 46.7458 96.3192C46.7458 96.6065 46.6317 96.882 46.4285 97.0852C46.2254 97.2884 45.9498 97.4025 45.6625 97.4025Z" fill="black"/>
<path d="M62.8334 90.0898H62.6167C62.3791 90.0415 62.1646 89.9149 62.0075 89.7303C61.8504 89.5457 61.7597 89.3137 61.7501 89.0715C61.7501 88.9523 61.1759 76.624 58.0776 71.229C57.9825 71.0643 57.9324 70.8775 57.9324 70.6873C57.9324 70.4971 57.9825 70.3103 58.0776 70.1456L59.5834 67.5998L56.9184 65.6065C56.7278 65.4638 56.5895 65.2624 56.5249 65.0333C56.4603 64.8042 56.4729 64.5602 56.5609 64.339C56.5609 64.2631 59.6592 56.3331 57.8067 51.729C57.7552 51.5791 57.7296 51.4216 57.7309 51.2631C57.7382 51.1746 57.7564 51.0873 57.7851 51.0031V50.9165C57.8302 50.7981 57.9004 50.691 57.9909 50.6023C58.0946 50.4791 58.2292 50.3857 58.3809 50.3315C58.5063 50.288 58.6382 50.2661 58.7709 50.2665H58.9876H59.1067C63.1966 51.6366 67.1381 53.415 70.8717 55.5748L74.7501 54.1665C74.9288 54.0949 75.1234 54.0721 75.3138 54.1007C75.5042 54.1293 75.6835 54.2081 75.8334 54.329C75.976 54.4429 76.0876 54.591 76.1576 54.7596C76.2277 54.9281 76.2541 55.1117 76.2342 55.2931L75.8334 58.3698C79.6467 60.2115 86.7534 65.8015 90.0901 68.5098C89.7326 59.1498 86.8401 52.2056 81.5534 47.8615C72.4426 40.4081 59.0309 43.0623 58.9009 43.0948C58.6924 43.1303 58.478 43.1039 58.2843 43.0189C58.0906 42.934 57.926 42.7942 57.8108 42.6168C57.6956 42.4394 57.6348 42.2321 57.636 42.0206C57.6372 41.8091 57.7003 41.6026 57.8176 41.4265C62.4651 34.439 63.9601 27.7331 62.2592 21.4931C60.2009 13.9098 53.9067 8.70982 50.0284 6.12065C52.0001 11.4723 52.1084 18.5356 52.0867 20.7781L55.9217 22.7498C56.0663 22.822 56.1929 22.9256 56.2923 23.0531C56.3916 23.1806 56.4612 23.3286 56.4959 23.4865C56.5299 23.6423 56.529 23.8036 56.4935 23.9591C56.4579 24.1145 56.3884 24.2602 56.2901 24.3856L54.0151 27.2673C54.6067 30.7412 54.8679 34.2633 54.7951 37.7865C54.7874 38.0333 54.6957 38.2701 54.5351 38.4577C54.3745 38.6453 54.1546 38.7724 53.9119 38.8179C53.6692 38.8634 53.4182 38.8246 53.2005 38.708C52.9828 38.5913 52.8116 38.4038 52.7151 38.1765C49.4651 30.4523 44.7417 25.3823 38.7292 23.129C32.4026 20.7565 26.0001 22.0456 22.4792 23.129C30.7559 26.0215 34.3201 29.7048 35.5767 31.3298L39.5959 29.6398C39.7724 29.5651 39.9656 29.5386 40.1557 29.5629C40.3458 29.5873 40.526 29.6616 40.678 29.7784C40.83 29.8951 40.9483 30.0501 41.0208 30.2275C41.0934 30.4049 41.1175 30.5984 41.0909 30.7881L40.6467 33.919C44.0267 35.8256 49.9092 41.719 50.6134 42.434C50.7994 42.6209 50.9109 42.8693 50.9268 43.1326C50.9428 43.3959 50.8622 43.6559 50.7001 43.864C50.5387 44.073 50.3065 44.2159 50.0471 44.2658C49.7878 44.3157 49.5191 44.2691 49.2917 44.1348C42.7917 40.224 36.4326 39.119 30.5392 40.8848C23.1401 43.0515 18.0267 49.2373 15.5242 52.9531C20.8542 51.1115 29.2717 49.9198 31.7742 49.584L32.8576 45.5323C32.9027 45.3465 32.9961 45.176 33.1285 45.038C33.2608 44.9 33.4273 44.7995 33.6111 44.7467C33.7948 44.6939 33.9893 44.6906 34.1747 44.7373C34.3601 44.7839 34.5299 44.8788 34.6667 45.0123L37.9167 48.3165C41.251 47.6997 44.6188 47.2801 48.0026 47.0598C48.1448 47.0499 48.2877 47.068 48.4229 47.1133C48.5581 47.1585 48.6832 47.2299 48.7908 47.3235C48.8984 47.417 48.9866 47.5309 49.0502 47.6585C49.1139 47.7861 49.1518 47.925 49.1617 48.0673C49.1717 48.2096 49.1535 48.3524 49.1083 48.4877C49.063 48.6229 48.9916 48.7479 48.898 48.8556C48.8045 48.9632 48.6906 49.0514 48.563 49.115C48.4354 49.1786 48.2965 49.2165 48.1542 49.2265C48.0784 49.2265 40.7117 49.7573 37.8951 50.5698C37.7069 50.6273 37.5067 50.6324 37.3158 50.5847C37.125 50.537 36.9507 50.4382 36.8117 50.299L34.3959 47.8831L33.6917 50.8081C33.6373 51.0173 33.5216 51.2054 33.3594 51.3482C33.1972 51.4911 32.9961 51.5822 32.7817 51.6098C28.5134 52.119 16.7051 53.9606 13.3684 56.2681C13.1708 56.4087 12.9317 56.4789 12.6895 56.4674C12.4472 56.456 12.2158 56.3636 12.0323 56.2051C11.8488 56.0465 11.7238 55.831 11.6773 55.593C11.6308 55.355 11.6655 55.1083 11.7759 54.8923C12.0359 54.3723 18.1784 42.2281 29.8784 38.7723C34.5601 37.4335 39.5469 37.6233 44.1134 39.314C42.5787 37.842 40.86 36.5748 39.0001 35.544C38.7763 35.4522 38.5898 35.2883 38.47 35.0782C38.3502 34.8681 38.3042 34.6241 38.3392 34.3848L38.6209 32.3698L35.5442 33.6698C35.2954 33.7746 35.0164 33.7827 34.7619 33.6926C34.5074 33.6024 34.2957 33.4204 34.1684 33.1823C34.1684 33.1823 31.0051 27.7656 18.8284 24.2665C18.6186 24.2063 18.4318 24.0841 18.2926 23.9159C18.1534 23.7477 18.0683 23.5414 18.0484 23.324C18.0263 23.103 18.0726 22.8806 18.1811 22.6868C18.2896 22.493 18.4551 22.3373 18.6551 22.2406C19.0776 22.0348 29.1417 17.2031 39.4442 21.0598C44.7851 23.0531 49.1942 27.0073 52.4442 32.8356C52.3421 30.9359 52.1032 29.046 51.7292 27.1806C51.6984 27.0257 51.7018 26.866 51.7392 26.7125C51.7767 26.559 51.8472 26.4156 51.9459 26.2923L53.7009 24.0498L50.4509 22.3815C50.2672 22.289 50.1137 22.1462 50.0082 21.9697C49.9027 21.7932 49.8495 21.5904 49.8551 21.3848C49.8551 21.2548 50.2667 9.13232 46.3992 3.87815C46.2447 3.6798 46.1639 3.43386 46.1708 3.18249C46.1777 2.93112 46.2718 2.68999 46.4371 2.50043C46.6023 2.31086 46.8283 2.18468 47.0764 2.14352C47.3245 2.10236 47.5791 2.14878 47.7967 2.27482C48.3276 2.53482 61.0459 8.83981 64.3392 20.919C66.0401 27.1806 64.8701 33.7998 60.8726 40.6248C65.3792 40.1373 75.3459 39.964 82.9401 46.1715C89.2234 51.3065 92.3759 59.6048 92.3326 70.8281C92.3308 71.0333 92.2709 71.2337 92.1598 71.4061C92.0487 71.5785 91.8909 71.7158 91.7048 71.802C91.5187 71.8883 91.3119 71.9199 91.1085 71.8932C90.9051 71.8666 90.7135 71.7828 90.5559 71.6515C90.4367 71.554 78.5525 61.6848 74.3059 60.049C74.0897 59.9662 73.9058 59.8163 73.7811 59.6213C73.6563 59.4264 73.5972 59.1966 73.6125 58.9656L73.8292 56.799L71.0776 57.7848C70.9148 57.8434 70.7404 57.8622 70.5688 57.8396C70.3973 57.817 70.2337 57.7536 70.0917 57.6548C68.4737 56.6135 66.7704 55.7111 65.0001 54.9573C66.2409 56.509 67.2315 58.2453 67.9359 60.1031C70.8717 67.7515 69.5067 77.6315 63.8842 89.4723C63.7912 89.6688 63.6413 89.8327 63.4539 89.9429C63.2665 90.053 63.0503 90.1042 62.8334 90.0898ZM60.2659 70.6873C62.2159 74.5006 63.1584 80.5673 63.5917 84.6515C67.4917 75.1073 68.2501 67.1665 65.8559 60.8831C64.7744 57.9875 62.8967 55.4563 60.4392 53.5815C60.9051 57.7306 59.4751 62.4973 58.8359 64.3498L61.6201 66.4406C61.8354 66.5993 61.9845 66.8321 62.0385 67.0941C62.0925 67.3562 62.0476 67.6289 61.9126 67.8598L60.2659 70.6873Z" fill="black"/>
</svg>
