<svg width="82" height="82" viewBox="0 0 82 82" fill="none" xmlns="http://www.w3.org/2000/svg">
<path d="M67.035 37.9591C65.5658 24.3266 54.4617 13.6666 41 13.6666C33.2783 13.6666 26.3425 17.22 21.5933 23.1308C22.0717 23.1308 22.55 23.0625 23.0625 23.0625C37.6517 23.0625 49.5417 34.9525 49.5417 49.5416H42.7083C42.7083 38.7108 33.8933 29.8958 23.0625 29.8958C18.2705 29.9018 13.646 31.6591 10.0593 34.8368C6.4725 38.0145 4.17085 42.3936 3.58749 47.15L3.48499 48.175C3.48499 48.5166 3.45082 48.8925 3.41666 49.2341C3.55332 59.7916 11.8558 68.2991 22.0033 68.2991H63.755C71.9208 68.2991 78.5492 61.3975 78.5492 52.9241C78.5492 45.6125 73.595 39.4625 67.0008 37.925L67.035 37.9591Z" fill="black"/>
</svg>
