<svg width="122" height="122" viewBox="0 0 122 122" fill="none" xmlns="http://www.w3.org/2000/svg">
<path d="M121.989 65.9559C122.077 65.1614 121.6 64.3515 120.169 63.4235C118.866 62.5738 117.517 61.7547 116.207 60.9172C113.338 59.0781 110.321 57.3939 107.445 55.4091C99.0903 49.6111 89.1616 47.5297 79.2483 46.1952C75.1836 45.6829 70.6403 45.8931 67.2244 43.3791C64.5739 41.4449 59.98 34.7419 54.9443 31.8306C54.0746 31.3107 49.9854 29.2461 49.9854 29.2461C49.9854 29.2461 52.3276 35.5963 52.8644 36.874C54.1084 39.8159 52.1818 42.3544 51.375 45.1783C50.8551 47.0419 55.1989 46.6324 55.426 48.3672C55.7511 50.9287 47.999 51.8306 43.6352 52.6911C37.0948 53.9704 29.4746 56.4169 22.9404 54.2725C15.2404 51.7984 9.75227 46.8855 4.21964 41.3298C6.79192 53.3599 13.9474 60.296 14.2649 61.7623C14.5977 63.3821 13.4427 63.715 12.4028 64.7718C10.0959 67.0358 0.032211 78.601 0 82.2685C2.88672 81.8252 6.37011 79.2974 8.90865 77.8218C11.7355 76.2021 22.514 68.2107 25.5326 66.9729C26.2228 66.686 34.5747 64.2334 34.6452 65.304C34.7695 66.9729 34.0946 67.3379 34.3155 68.0358C34.7204 69.3703 36.8939 70.6572 37.9338 71.5867C40.6334 73.8982 43.6766 75.9306 45.5786 79.0213C48.2475 83.3177 48.3656 87.9637 49.1249 92.7539C50.9041 92.5545 52.7187 88.8626 53.7034 87.4008C54.6207 86.0188 57.9722 80.118 59.2437 79.753C60.4463 79.3879 64.172 81.4678 65.5095 81.8651C70.625 83.3821 75.6054 84.2871 80.822 84.2871C87.0971 84.3039 103.586 84.7487 115.802 75.7005C117.153 74.6851 120.376 70.8152 120.376 70.8152C120.376 70.8152 119.702 69.7829 118.501 69.401C120.107 68.3549 121.839 67.2336 121.989 65.9559ZM110.886 66.5204C109.353 66.5204 108.122 65.304 108.122 63.764C108.122 62.2225 109.353 60.9878 110.886 60.9878C112.427 60.9878 113.657 62.198 113.657 63.764C113.657 65.2887 112.418 66.5204 110.886 66.5204Z" fill="#010002"/>
</svg>
