<svg width="156" height="129" viewBox="0 0 156 129" fill="none" xmlns="http://www.w3.org/2000/svg">
<g clip-path="url(#clip0_2050_25)">
<path d="M139.012 11.9164C138.243 11.025 136.861 10.045 135.089 10.0487C131.122 10.5148 130.362 12.7626 128.664 14.8344C127.855 16.0203 126.976 17.4133 125.991 18.9493C113.503 7.24918 96.2098 0 77.1313 0C57.5251 0 39.8062 7.6567 27.249 19.9311C24.6166 17.274 21.5484 15.5321 17.974 15.2285C14.7603 15.1827 11.8552 17.1927 10.2001 20.0497C3.70949 30.6812 0 43.002 0 56.1092C0.00260956 91.7063 27.3025 121.329 63.3953 127.719C63.6334 127.764 63.8728 127.804 64.1116 127.846C64.169 127.856 64.2264 127.865 64.2838 127.875C68.4493 128.609 72.7434 129.001 77.1313 129C77.2501 129 77.3669 128.994 77.4856 128.994C77.6578 128.994 77.8281 129 78.0016 129C121.073 129 155.997 96.3735 156.001 56.1092C156.044 38.4332 150.35 24.4743 139.012 11.9164ZM122.223 24.0698C122.294 24.1389 122.375 24.1908 122.452 24.2525C117.994 30.5712 111.67 37.9487 101.76 43.7761C94.5077 48.0383 84.6084 54.8616 76.1169 60.9231C76.1449 60.4557 76.1638 59.9858 76.1638 59.5093C76.1306 51.1878 72.1921 41.1294 70.9297 30.4936C70.8403 29.7476 70.7986 29.023 70.7986 28.3173C70.5592 16.5744 83.361 9.47067 90.1713 7.3836C102.631 9.85375 113.711 15.79 122.223 24.0698ZM77.1313 6.11033C79.4858 6.11033 81.809 6.23619 84.0949 6.47264C76.5468 10.0254 67.7291 17.073 67.5367 28.3173C67.5367 29.1391 67.5849 29.9779 67.6906 30.8364C69.0424 41.8907 72.9378 52.078 72.9032 59.5093C72.9019 60.9903 72.7492 62.3411 72.4244 63.5747C67.3722 67.221 63.1291 70.3614 60.7185 72.1564C59.4111 70.596 58.062 69.0716 56.6744 67.6028C43.0753 53.311 40.6621 50.3881 36.5312 36.8783C35.0953 32.6082 33.3201 28.4682 31.1438 24.9674C42.5749 13.3717 58.929 6.11216 77.1313 6.11033ZM6.52389 56.1092C6.5265 44.0835 9.91958 32.8239 15.8635 23.0813C16.9947 21.3712 17.5036 21.3822 17.9733 21.3364C18.7738 21.18 21.5054 22.6255 23.9623 25.9077C26.4544 29.0981 28.8043 33.6817 30.248 38.5273C34.3816 52.6157 38.3122 57.6916 51.8186 71.6835C63.9883 84.1931 73.3612 102.94 73.1753 110.908C73.1753 111.497 73.1283 112.007 73.0493 112.421C72.2365 116.73 71.6682 119.253 71.3127 120.656C70.9636 122.054 70.8795 122.093 70.9154 122.109L70.9089 122.121L70.9075 122.127C70.8488 122.264 70.8169 122.404 70.7816 122.543C68.4513 122.322 66.1536 121.994 63.8944 121.569C61.8707 121.161 57.36 119.966 57.0749 119.954C27.827 111.572 6.58261 86.1825 6.52389 56.1092ZM87.8945 122.027C84.5203 122.573 81.0522 122.866 77.511 122.885C77.4895 122.885 77.4693 122.885 77.4471 122.885C77.8333 121.475 78.47 118.777 79.4754 113.486C79.6306 112.652 79.6985 111.794 79.6985 110.909C79.553 102.179 73.4767 88.985 64.6029 77.0692C71.147 72.1918 92.7221 56.2833 105.223 48.9529C116.774 42.176 123.907 33.4397 128.641 26.5522C131.006 23.1118 132.791 20.1114 134.15 18.1391C134.454 17.6913 134.739 17.3015 134.992 16.9771C144.783 28.3424 149.432 40.1415 149.474 56.1098C149.418 85.4915 129.138 110.404 100.93 119.352C99.766 119.72 90.4629 121.612 87.8945 122.027Z" fill="#231F20"/>
<path d="M130.05 86.6907C129.744 86.5117 129.343 86.5972 129.15 86.8825C120.059 100.443 105.207 110.428 87.7118 113.978C87.3589 114.048 87.1358 114.373 87.2121 114.704C87.2871 115.033 87.6349 115.243 87.9878 115.172C105.831 111.551 120.977 101.372 130.254 87.5338C130.447 87.2461 130.355 86.8697 130.05 86.6907Z" fill="#231F20"/>
<path d="M138.375 66.3283C138.022 66.2635 137.681 66.4811 137.613 66.8122C136.822 70.6583 135.63 74.3748 134.074 77.9227C133.938 78.2337 134.097 78.5911 134.43 78.7194C134.764 78.8477 135.145 78.698 135.283 78.3871C136.869 74.7634 138.086 70.9699 138.894 67.0425C138.961 66.7114 138.731 66.3918 138.375 66.3283Z" fill="#231F20"/>
</g>
<defs>
<clipPath id="clip0_2050_25">
<rect width="156" height="129" fill="white"/>
</clipPath>
</defs>
</svg>
