<svg width="76" height="75" viewBox="0 0 76 75" fill="none" xmlns="http://www.w3.org/2000/svg">
<path d="M55.1317 40.3125C56.525 40.3125 57.7917 39.4063 58.1717 38C59.9133 31.5625 59.0267 24.8125 55.6383 19.0313C52.25 13.25 46.8033 9.12504 40.2483 7.37504C33.725 5.65629 26.885 6.53129 21.0267 9.87504C15.1683 13.2188 10.9883 18.5938 9.215 25.0625C8.77167 26.7188 9.75333 28.4375 11.4633 28.875L29.83 33.7188L20.805 66.9375L26.9167 68.5625L35.9417 35.3438L54.3083 40.1875C54.5933 40.25 54.8467 40.2813 55.1317 40.2813V40.3125ZM41.7367 32.0313L26.505 28C29.7667 17.3438 35.53 11 39.045 11.9063C42.4967 12.8125 44.3333 21.1875 41.7367 32.0313Z" fill="black"/>
<path d="M54.1252 46.875C51.1858 46.875 48.3667 48.0273 46.2881 50.0785C44.2096 52.1297 43.0419 54.9117 43.0419 57.8125C43.0419 60.7133 44.2096 63.4953 46.2881 65.5465C48.3667 67.5977 51.1858 68.75 54.1252 68.75C57.0647 68.75 59.8838 67.5977 61.9624 65.5465C64.0409 63.4953 65.2086 60.7133 65.2086 57.8125C65.2086 54.9117 64.0409 52.1297 61.9624 50.0785C59.8838 48.0273 57.0647 46.875 54.1252 46.875Z" fill="black"/>
</svg>

