<svg width="135" height="135" viewBox="0 0 135 135" fill="none" xmlns="http://www.w3.org/2000/svg">
<path d="M25.4 77.9C26.6703 77.9 27.7 76.8703 27.7 75.6C27.7 74.3298 26.6703 73.3 25.4 73.3C24.1298 73.3 23.1 74.3298 23.1 75.6C23.1 76.8703 24.1298 77.9 25.4 77.9Z" fill="#383F4C"/>
<path d="M85.1 46.5C87.2539 46.5 89 44.7539 89 42.5999C89 40.446 87.2539 38.7 85.1 38.7C82.9461 38.7 81.2 40.446 81.2 42.5999C81.2 44.7539 82.9461 46.5 85.1 46.5Z" fill="#383F4C"/>
<path d="M106.9 34.4001C114 32.6001 119.1 26 119.1 18.5C119.1 9.20005 111.7 1.80005 102.6 1.80005H40.2C39 1.80005 38 2.80005 38 4.00005C38 5.20005 39 6.20005 40.2 6.20005H102.6C108.4 6.20005 113.3 10.3 114.4 15.8C111.9 12.3 107.4 9.90005 102.2 9.90005H49.4C48.2 9.90005 47.2 10.9 47.2 12.1C47.2 13.3 48.2 14.3 49.4 14.3H102.2C107.6 14.3 112 17.8001 112 22.2001C112 25.6001 109.2 28.7001 105.3 29.7001C105.2 29.7001 105.1 29.7001 105.1 29.7001H67.5C39 30.0001 15.9 53.1 15.9 81.6C15.9 110.1 39 133.2 67.5 133.2C89 133.2 93.6 115.1 93.7 114.9C93.9 114.2 93.7 113.5 93.3 113C92.9 112.5 92.2 112.1 91.6 112.1L69.6 111.8C62.4 111.8 55.9 108.5 51.6 103.3H61C62.2 103.3 63.2 102.3 63.2 101.1C63.2 99.9 62.2 98.9 61 98.9H48.6C47.4 96.6 46.6 94 46.3 91.3H57.6C58.8 91.3 59.8 90.3 59.8 89.1C59.8 87.9 58.8 86.9 57.6 86.9H46.2C46.4 83.9 47.2 81 48.4 78.4H61C62.2 78.4 63.2 77.4 63.2 76.2C63.2 75 62.2 74 61 74H51.2C55.5 68.6 62.1 65.2 69.5 65.2C97.9 65.2 105.3 41.4 106.9 34.6M41.6 88.3C41.6 103.7 54.1 116.2 69.5 116.2L88.3 116.5C87.7 117.8 86.7 119.6 85.2 121.3H62.7C61.5 121.3 60.5 122.3 60.5 123.5C60.5 124.7 61.5 125.7 62.7 125.7H79.6C76.6 127.4 72.6 128.6 67.5 128.6C41.5 128.6 20.4 107.5 20.4 81.5C20.4 57.3 38.7 37.3001 62.2 34.7001V61.2001V61.3C50.3 64.6 41.6 75.4 41.6 88.3ZM69.5 60.4001C68.5 60.4001 67.6 60.4 66.7 60.5V34.5C67 34.5 67.2 34.5 67.5 34.5H102.3C100.6 41.5 93.7 60.4001 69.5 60.4001Z" fill="#383F4C"/>
<path d="M27.7 65.9001C28.9703 65.9001 30 64.8703 30 63.6C30 62.3298 28.9703 61.3 27.7 61.3C26.4298 61.3 25.4 62.3298 25.4 63.6C25.4 64.8703 26.4298 65.9001 27.7 65.9001Z" fill="#383F4C"/>
<path d="M33.8 56.7001C35.0703 56.7001 36.1 55.6704 36.1 54.4001C36.1 53.1298 35.0703 52.1001 33.8 52.1001C32.5297 52.1001 31.5 53.1298 31.5 54.4001C31.5 55.6704 32.5297 56.7001 33.8 56.7001Z" fill="#383F4C"/>
</svg>
