<svg width="121" height="121" viewBox="0 0 121 121" fill="none" xmlns="http://www.w3.org/2000/svg">
<rect x="0.5" y="0.5" width="120" height="120" stroke="white"/>
<path d="M60.5 15.751C61.8206 15.751 63.1145 16.2586 63.9697 17.2412L64.1348 17.4443L109.508 77.9414L109.516 77.9521C110.372 79.0336 110.645 80.4811 110.283 81.7939C109.939 83.0422 109.115 84.1144 107.977 84.6875L107.745 84.7949L107.739 84.7979L62.3643 104.964H62.3633L62.3574 104.967C61.7686 105.239 61.1344 105.375 60.5 105.375C59.8656 105.375 59.2314 105.239 58.6426 104.967L58.6357 104.964L13.2607 84.7979L13.2549 84.7949L13.0205 84.6865C11.8707 84.1096 11.0167 83.0359 10.7207 81.8096C10.4012 80.4858 10.6772 79.0267 11.4912 77.9414L56.8643 17.4443C57.7122 16.3286 59.0912 15.751 60.5 15.751ZM65.041 93.8896L65.7451 93.5762L98.2637 79.1064L98.8369 78.8516L98.46 78.3496L65.9414 34.9912L65.041 33.792V93.8896ZM55.0576 34.9414L22.5391 78.2998L22.1631 78.8018L22.7363 79.0566L55.2549 93.5264L55.958 93.8389V33.7412L55.0576 34.9414Z" fill="black" stroke="black"/>
</svg>
