<svg width="143" height="143" viewBox="0 0 143 143" fill="none" xmlns="http://www.w3.org/2000/svg">
<g clip-path="url(#clip0_311_315)">
<path d="M121.547 90.084C121.415 91.3875 120.634 92.8506 119.014 94.4678C117.346 96.1321 114.967 97.7801 112.099 99.3789C106.836 102.312 100.181 105.015 94.2832 107.254L94.2803 107.255C94.2486 107.267 94.2134 107.279 94.1748 107.289L94.0508 107.315C94.0179 107.321 93.9825 107.325 93.9453 107.327L93.8271 107.329C93.652 107.322 93.5024 107.317 93.3867 107.314H93.3818C93.3488 107.314 93.2899 107.314 93.2275 107.315C93.1881 107.317 93.1573 107.318 93.1426 107.319C93.1455 107.319 93.1497 107.319 93.1533 107.318C93.1738 107.317 93.1778 107.318 93.1445 107.318C93.1119 107.319 93.0537 107.319 92.9541 107.319C89.2835 107.319 86.6774 108.515 84.5049 109.497C82.0932 110.588 80.1244 111.459 77.2715 111.459C74.3301 111.459 72.375 110.578 69.9951 109.484C67.8606 108.503 65.3163 107.319 61.5889 107.319C57.6929 107.319 55.288 108.503 53.2666 109.491C51.3969 110.405 49.8702 111.139 47.6143 111.369C47.1523 111.416 46.3035 111.365 45.0664 111.144C43.8686 110.929 42.4338 110.578 40.8623 110.112C37.7175 109.18 34.1236 107.813 30.9209 106.245C28.3657 104.994 26.0734 103.612 24.3594 102.203C22.684 100.826 21.7964 99.6129 21.5146 98.668L23.0293 100.455C23.8636 101.44 25.097 102.384 26.4414 103.25C27.8143 104.134 29.4261 105.013 31.1172 105.841C34.2038 107.352 37.5597 108.668 40.458 109.581C41.9071 110.037 43.2681 110.4 44.4414 110.636C45.5623 110.861 46.6864 111.006 47.583 110.915C49.8369 110.685 51.5882 109.811 53.0684 109.087C55.4351 107.93 57.6509 106.851 61.5889 106.851C65.3252 106.851 67.6561 107.91 70.1758 109.068V109.069C72.084 109.946 74.306 110.99 77.2715 110.99C80.1397 110.99 82.3929 109.945 84.3193 109.074C86.8859 107.914 89.265 106.851 92.9541 106.851C92.9783 106.851 92.9705 106.85 92.9521 106.85C92.9588 106.85 92.9678 106.851 92.9766 106.852C93.0495 106.855 93.1553 106.857 93.3828 106.861V106.862L93.5996 106.867L93.9893 106.876L94.3535 106.737C100.069 104.563 106.668 101.885 111.882 98.9795C113.805 97.9077 115.57 96.8049 117.014 95.6963C118.424 94.6128 119.681 93.4104 120.415 92.1025L121.547 90.084ZM120.221 88.5156C120.378 88.5017 120.556 88.5249 120.741 88.5967C120.911 88.6623 121.063 88.764 121.189 88.8965H121.19C121.192 88.8977 121.192 88.8992 121.193 88.9004L118.5 89.1309L24.3857 97.1699L21.6797 97.4004C21.7569 97.2876 21.8467 97.1927 21.9434 97.1162L22.0498 97.041C22.2057 96.9433 22.3832 96.8819 22.5732 96.8633L22.7988 96.8408L22.8125 96.8359L120.214 88.5166L120.221 88.5156Z" fill="black" stroke="black" stroke-width="4"/>
<path d="M55.1201 39.9297C51.1485 44.3385 48.2265 50.5095 46.0859 56.8525C42.5107 67.4471 40.9891 78.8887 40.5723 85.1045L40.416 87.4297L42.7383 87.2314L58.0498 85.9238L59.9355 85.7627L59.8789 83.8711L58.6045 41.208L58.4922 37.457C58.5803 37.5282 58.6587 37.61 58.7236 37.7002V37.7012C58.8466 37.8719 58.9337 38.0821 58.9668 38.3145L58.9736 38.4033L60.3945 85.9746L60.4004 86.1895L60.1816 86.209L40.2393 87.9131L39.9941 87.9336L40 87.6768C40.1024 82.5938 41.5068 68.9981 45.6514 56.7168C48.2961 48.88 51.9846 41.788 56.9609 37.4766C57.1363 37.3252 57.3425 37.2317 57.5605 37.1963L57.5615 37.1973C57.5683 37.1962 57.5752 37.1953 57.582 37.1943L55.1201 39.9297ZM66.708 21.4834C66.896 21.4861 67.0901 21.5334 67.2783 21.6416C69.7785 23.0843 72.5584 25.8781 75.4561 29.7461C78.3287 33.5807 81.2088 38.323 83.9473 43.4863C91.0976 56.968 97.2607 73.178 99.6328 82.5732L99.6982 82.833L99.4199 82.8574L67.21 85.6094L66.9766 85.6289L66.9707 85.3809L65.4893 23.2812L65.4863 23.1543L65.4668 23.0283L65.4521 22.8691C65.4462 22.7102 65.4672 22.5511 65.5127 22.4014C65.5904 22.1467 65.7294 21.9331 65.9053 21.7803L65.9873 25.1709L67.3662 82.9971L67.417 85.123L69.5361 84.9424L96.7266 82.6201L99.1475 82.4131L98.4795 80.0771C95.7261 70.4536 90.0443 55.9603 83.5361 43.6895C79.0116 35.1586 73.9952 27.4738 69.2568 23.5781L66.708 21.4834Z" fill="#212121" stroke="black" stroke-width="4"/>
<path d="M92.9541 120.063C95.1284 120.064 97.3259 120.644 99.6953 121.894V121.895C100.659 122.404 101.852 123.039 103.262 123.486C104.695 123.941 106.413 124.235 108.638 124.235C108.767 124.235 108.872 124.34 108.872 124.47C108.872 124.599 108.767 124.704 108.638 124.704C106.325 124.704 104.57 124.374 103.128 123.916C101.671 123.453 100.607 122.895 99.4863 122.303L99.4854 122.302L99.0771 122.093C97.0384 121.077 95.0145 120.515 92.9541 120.515C90.8936 120.514 88.8695 121.075 86.8301 122.093L86.4219 122.303C83.3389 123.932 80.2968 124.715 77.2715 124.715C74.2462 124.715 71.203 123.931 68.1191 122.303V122.302C65.9421 121.152 63.7862 120.515 61.5889 120.515C59.3914 120.515 57.2353 121.153 55.0586 122.302L55.0576 122.303C51.9614 123.938 48.9193 124.725 45.9072 124.725C42.8956 124.725 39.8544 123.938 36.7588 122.303H36.7578C35.9793 121.892 35.1134 121.429 34.0596 121.096C32.9784 120.753 31.77 120.564 30.2256 120.564C30.0962 120.564 29.9912 120.459 29.9912 120.33C29.9913 120.201 30.0962 120.096 30.2256 120.096C31.9745 120.096 33.1505 120.299 34.0967 120.595C35.0672 120.898 35.8742 121.317 36.9658 121.894C39.898 123.443 42.885 124.256 45.9072 124.256C48.7409 124.256 51.5431 123.542 54.2988 122.176L54.8486 121.895C57.2174 120.645 59.4146 120.064 61.5889 120.063C63.6275 120.063 65.6858 120.574 67.8867 121.668L68.3291 121.895C71.2703 123.448 74.2573 124.264 77.2715 124.264C80.0971 124.264 82.8986 123.547 85.6611 122.177L86.2129 121.895C88.5819 120.644 90.7795 120.063 92.9541 120.063ZM92.9541 114.081C95.9775 114.081 99.0188 114.865 102.106 116.493C102.933 116.93 103.853 117.414 104.872 117.725C105.918 118.043 107.116 118.208 108.679 118.208C108.808 118.208 108.913 118.313 108.913 118.442C108.913 118.572 108.808 118.677 108.679 118.677C106.988 118.677 105.777 118.471 104.747 118.157C103.703 117.839 102.91 117.437 101.896 116.901H101.896C98.9526 115.349 95.9672 114.532 92.9541 114.532C89.941 114.532 86.956 115.349 84.0127 116.901H84.0117C81.6304 118.159 79.4328 118.742 77.2715 118.742C75.1104 118.742 72.913 118.16 70.5312 116.901H70.5303C67.5881 115.35 64.6028 114.532 61.5898 114.532C58.7649 114.532 55.9641 115.25 53.2002 116.62L52.6484 116.902C50.2803 118.152 48.0824 118.733 45.9072 118.733C43.8772 118.733 41.8186 118.228 39.6113 117.13L39.168 116.902L39.1641 116.9L39.1484 116.892L39.1445 116.89L39.125 116.879C37.1495 115.837 34.6852 114.561 30.2256 114.561C30.0962 114.56 29.9912 114.456 29.9912 114.326C29.9912 114.197 30.0963 114.092 30.2256 114.092C34.8166 114.092 37.1259 115.306 39.335 116.472L39.3525 116.48L39.3711 116.49C39.3768 116.493 39.3799 116.495 39.3809 116.495L39.3936 116.502C41.5561 117.642 43.7076 118.273 45.9072 118.273C48.0999 118.273 50.2561 117.647 52.4385 116.495H52.4395C55.5252 114.865 58.5653 114.081 61.5889 114.081C64.6122 114.081 67.6539 114.865 70.7412 116.493C72.9108 117.639 75.066 118.273 77.2715 118.273C79.4767 118.273 81.6316 117.639 83.8008 116.493L83.8018 116.494C86.8895 114.865 89.9305 114.081 92.9541 114.081Z" fill="#212121" stroke="black" stroke-width="4"/>
</g>
<rect x="2.5" y="2.5" width="138" height="138" stroke="white" stroke-width="5"/>
<defs>
<clipPath id="clip0_311_315">
<rect width="143" height="143" fill="white"/>
</clipPath>
</defs>
</svg>
