<svg width="160" height="162" viewBox="0 0 160 162" fill="none" xmlns="http://www.w3.org/2000/svg">
<g clip-path="url(#clip0_311_338)">
<path d="M132.261 38.8811C116.499 36.452 103.825 53.254 94.4647 65.6624C88.5735 73.4724 83.8541 79.7286 79.2145 79.7061C74.7357 79.6867 71.1082 74.6134 66.2917 67.8771C58.4739 56.9433 47.103 41.0427 26.6556 38.8609C26.568 40.0952 26.5993 41.8937 26.7531 44.0986C26.9727 47.2456 27.4395 51.0664 28.1656 55.1261C30.7899 69.797 36.6715 88.0674 46.0925 89.0187L49.5163 89.3644L48.1335 92.5487C43.9738 102.129 42.6502 109.38 43.3489 114.48C43.7478 117.393 44.8139 119.527 46.3732 120.923C47.9253 122.313 50.04 123.04 52.5322 123.132C56.4681 123.278 61.2512 121.875 66.2894 119.022C66.4565 115.068 67.1075 109.669 68.7017 105.216C70.5484 100.058 73.6549 96.0731 78.725 96.1495C78.85 96.1512 78.932 96.153 78.9642 96.1543C83.0067 96.3237 85.842 99.4713 87.7429 103.78C89.797 108.435 90.8026 114.626 91.0224 119.307C95.796 122.452 100.509 123.709 104.464 123.286C106.914 123.024 109.06 122.108 110.712 120.593C112.375 119.067 113.574 116.9 114.123 114.143C115.156 108.947 113.91 101.77 109.259 92.8832L107.448 89.4235L111.319 89.1852C120.78 88.6026 126.737 79.827 130.044 69.7221C131.705 64.6425 132.695 59.2349 133.127 54.2993C133.557 49.3846 133.44 45.0046 132.888 41.9321C132.547 40.0343 132.334 38.8828 132.32 38.881L132.261 38.8811ZM90.5001 62.5973C100.624 49.1754 114.334 31.0008 133.004 33.8779C135.416 34.2319 137.048 36.9112 137.791 41.0422C138.424 44.5664 138.572 49.4236 138.108 54.7344C137.645 60.0244 136.58 65.8321 134.79 71.3043C131.314 81.9274 125.103 91.3125 115.224 93.6899C119.163 102.292 120.117 109.545 119.005 115.132C118.237 118.996 116.493 122.09 114.052 124.33C111.599 126.581 108.48 127.934 104.972 128.309C99.5962 128.884 93.2847 127.135 87.1391 122.745L86.1043 122.006L86.0844 120.709C86.0189 116.449 85.1553 110.286 83.1921 105.836C82.0256 103.192 80.5431 101.272 78.769 101.197C78.6867 101.194 78.6781 101.192 78.6663 101.192C76.257 101.156 74.556 103.678 73.3892 106.937C71.9827 110.865 71.4107 115.744 71.2659 119.315C71.2467 119.792 71.2349 120.196 71.23 120.531L71.2091 121.945L70.019 122.666C63.7224 126.485 57.5388 128.367 52.3563 128.175C48.7089 128.04 45.5256 126.896 43.0724 124.7C40.6262 122.511 38.979 119.345 38.4074 115.172C37.6617 109.729 38.7715 102.449 42.4199 93.2615C32.0335 89.1729 25.9275 70.9102 23.2633 56.016C22.4909 51.6975 21.9989 47.6986 21.7725 44.4545C21.5342 41.038 21.5853 38.3105 21.9077 36.753C22.3233 34.7454 23.3402 33.6502 24.9858 33.6502L25.142 33.6601C49.0998 35.2118 61.7296 52.8758 70.3349 64.9108C74.309 70.4689 77.3021 74.655 79.2342 74.6633C81.3903 74.6738 85.4422 69.3025 90.5001 62.5973Z" fill="black"/>
<path d="M81.4054 61.7237C81.4054 60.3257 80.286 59.1924 78.9053 59.1924C77.5246 59.1924 76.4053 60.3258 76.4053 61.7237V116.438C76.4053 117.836 77.5246 118.969 78.9053 118.969C80.286 118.969 81.4054 117.836 81.4054 116.438V61.7237Z" fill="black"/>
<path d="M121.08 60.8511C121.754 60.7146 122.191 60.0505 122.056 59.3679C121.921 58.6854 121.266 58.2427 120.591 58.3792C115.887 59.3449 112.092 61.0873 109.369 63.743C106.597 66.446 104.959 70.0466 104.624 74.6794C104.576 75.3756 105.094 75.98 105.782 76.0291C106.469 76.0781 107.066 75.5535 107.115 74.8573C107.401 70.8843 108.777 67.8257 111.098 65.5624C113.467 63.252 116.845 61.7204 121.08 60.8511Z" fill="black"/>
<path d="M38.085 58.3792C37.4108 58.2427 36.7549 58.6854 36.6201 59.3679C36.4853 60.0505 36.9225 60.7146 37.5966 60.8511C41.8315 61.7204 45.2096 63.252 47.5788 65.5624C49.8997 67.8257 51.275 70.8843 51.5619 74.8573C51.6104 75.5535 52.2073 76.0781 52.8949 76.0291C53.5825 75.98 54.1006 75.3756 54.0522 74.6794C53.7175 70.0466 52.079 66.446 49.3073 63.743C46.5839 61.0873 42.7894 59.3448 38.085 58.3792Z" fill="black"/>
<path d="M109.707 113.198C110.381 113.335 111.037 112.892 111.172 112.209C111.306 111.527 110.869 110.863 110.195 110.726C105.96 109.857 102.582 108.325 100.213 106.015C97.892 103.752 96.5167 100.693 96.2297 96.7199C96.1813 96.0236 95.5844 95.4991 94.8968 95.5481C94.2091 95.5971 93.691 96.2015 93.7395 96.8978C94.0741 101.531 95.7126 105.131 98.4844 107.834C101.208 110.49 105.002 112.232 109.707 113.198Z" fill="black"/>
<path d="M47.1211 110.727C46.4469 110.864 46.0097 111.528 46.1445 112.21C46.2793 112.893 46.9352 113.336 47.6094 113.199C52.3138 112.233 56.1083 110.491 58.8317 107.835C61.6034 105.132 63.2418 101.532 63.5765 96.8987C63.625 96.2025 63.1068 95.5981 62.4192 95.5491C61.7316 95.5 61.1347 96.0246 61.0862 96.7208C60.7993 100.694 59.4241 103.753 57.1032 106.016C54.7339 108.326 51.356 109.858 47.1211 110.727Z" fill="black"/>
</g>
<defs>
<clipPath id="clip0_311_338">
<rect width="160" height="162" fill="white"/>
</clipPath>
</defs>
</svg>
