<svg width="161" height="161" viewBox="0 0 161 161" fill="none" xmlns="http://www.w3.org/2000/svg">
<g clip-path="url(#clip0_311_324)">
<path d="M80.5 45.2813C81.8038 45.2813 83.0975 45.2949 84.38 45.3213C84.5511 45.7464 84.724 46.1696 84.8959 46.5909C85.3473 47.6978 85.9052 49.0222 86.3787 50.4064C84.4478 50.3446 82.4867 50.3126 80.5 50.3126C78.7156 50.3126 76.9521 50.3384 75.2124 50.3885C74.8525 48.9371 74.3701 47.4616 73.8038 45.9633C73.7337 45.778 73.6628 45.5929 73.5912 45.4082C75.8567 45.3246 78.162 45.2813 80.5 45.2813ZM64.906 50.9886C56.0238 51.7795 48.096 53.2293 41.7443 55.15C32.7449 57.8713 27.1785 61.2638 27.1785 64.682C27.1785 68.1002 32.7449 71.4926 41.7444 74.214C51.6278 77.2027 65.3274 79.0513 80.5 79.0513C95.6726 79.0513 109.372 77.2027 119.255 74.214C128.255 71.4926 133.821 68.1002 133.821 64.682C133.821 61.2638 128.255 57.8713 119.256 55.15C113.13 53.2976 105.538 51.8835 97.0391 51.0758C96.6684 49.4034 96.1248 47.6984 95.4688 45.9631L95.4393 45.8851C105.12 46.6849 113.79 48.2423 120.71 50.3349C131.919 53.7246 138.853 58.775 138.853 64.682C138.853 70.589 131.919 75.6394 120.71 79.0291C110.385 82.1514 96.1653 84.0827 80.5001 84.0827C64.835 84.0827 50.6156 82.1514 40.2903 79.0291C29.0808 75.6394 22.1475 70.589 22.1475 64.682C22.1475 58.775 29.0808 53.7246 40.2902 50.3349C46.603 48.4259 54.3716 46.9622 63.0361 46.1129L63.2311 46.5909C63.7455 47.8521 64.3977 49.3957 64.906 50.9886Z" fill="black"/>
<path d="M26.9238 67.9404L27.2295 68.2949C28.8466 70.1695 31.4516 71.8195 34.6953 73.2559C37.9669 74.7045 42.0147 75.9897 46.6445 77.0703C56.0203 79.2586 67.7593 80.5518 80.5 80.5518C93.2406 80.5517 104.98 79.2586 114.355 77.0703C118.985 75.9897 123.032 74.7045 126.304 73.2559C129.547 71.8195 132.152 70.1695 133.77 68.2949L134.075 67.9404H136.43L136.23 69.1182L129.195 110.627C128.303 115.889 126.044 120.669 122.692 124.021C119.563 127.149 115.501 129.069 110.609 129.069H50.1045C45.2122 129.069 41.1498 127.15 38.0205 124.021C34.6693 120.669 32.4104 115.889 31.5186 110.627L24.4834 69.1182L24.2832 67.9404H26.9238ZM27.4287 74.4043L33.5137 110.303C34.3163 115.039 36.3275 119.454 39.457 122.584V122.585C42.1911 125.319 45.7996 127.038 50.1045 127.038H110.609C114.914 127.038 118.523 125.319 121.257 122.585C124.387 119.455 126.398 115.039 127.2 110.303L133.252 74.5996L133.799 71.373L130.997 73.0654C127.122 75.4068 121.588 77.4617 114.813 79.043C105.329 81.2566 93.4241 82.583 80.5 82.583C67.5757 82.583 55.6709 81.2566 46.1865 79.043C39.2306 77.4194 33.5859 75.297 29.7002 72.8799L26.8721 71.1211L27.4287 74.4043Z" fill="black" stroke="black" stroke-width="3"/>
<path d="M97.0295 31.0736C90.4913 32.2434 89.1982 34.548 89.7094 37.4052C90.0343 39.2211 90.9399 41.4414 91.8833 43.7544C94.654 50.5472 97.7043 58.0255 91.1565 64.6499L87.5795 61.132C91.8015 56.8606 89.4036 50.9814 87.2254 45.6411C86.195 43.1147 85.2058 40.6899 84.7764 38.2896C83.7468 32.5349 85.6702 28.0147 96.145 26.1406L97.0295 31.0736Z" fill="black"/>
<path d="M75.3645 31.0736C68.8262 32.2434 67.5332 34.548 68.0443 37.4052C68.3692 39.2211 69.2749 41.4414 70.2182 43.7544C72.989 50.5472 76.0392 58.0256 69.4914 64.6499L65.9144 61.132C70.1365 56.8606 67.7386 50.9814 65.5603 45.6411C64.53 43.1147 63.5407 40.6899 63.1114 38.2896C62.0818 32.5349 64.0051 28.0147 74.48 26.1406L75.3645 31.0736Z" fill="black"/>
</g>
<defs>
<clipPath id="clip0_311_324">
<rect width="161" height="161" fill="white"/>
</clipPath>
</defs>
</svg>
