<svg width="112" height="112" viewBox="0 0 112 112" fill="none" xmlns="http://www.w3.org/2000/svg">
<g clip-path="url(#clip0_311_361)">
<path d="M101.132 72.7295C101.14 76.9138 100.293 81.0555 98.6442 84.9011C96.9952 88.7467 94.5786 92.2153 91.5425 95.0945L90.93 94.9195C90.4925 94.7795 90.09 94.6395 89.7225 94.482C89.5529 94.3841 89.3776 94.2964 89.1975 94.2195C88.06 93.642 87.115 92.907 85.8725 92.382C85.5984 92.2669 85.318 92.1675 85.0325 92.0845C84.0346 91.7805 82.9956 91.6329 81.9525 91.647C81.301 91.645 80.6507 91.7035 80.01 91.822C79.4815 91.8892 78.9638 92.0245 78.47 92.2245C78.0208 92.375 77.5871 92.5684 77.175 92.802C76.5625 93.1345 76.02 93.467 75.425 93.817C74.8256 94.185 74.1928 94.4956 73.535 94.7445C72.4133 95.147 71.2263 95.3369 70.035 95.3045C69.4486 95.3107 68.8629 95.2638 68.285 95.1645C69.8674 92.594 71.0477 89.7967 71.785 86.8695L72.0475 85.767C72.205 85.067 72.3275 84.3495 72.4325 83.632C72.4325 83.247 72.555 82.8445 72.59 82.4595C72.7098 81.3436 72.7682 80.2219 72.765 79.0995V78.7495C72.765 78.382 72.765 78.0495 72.765 77.682C72.7917 77.3734 72.7917 77.0631 72.765 76.7545C72.765 76.3695 72.765 75.9845 72.6775 75.5995C72.59 75.2145 72.555 74.567 72.45 74.0595C72.345 73.552 72.345 73.412 72.2925 73.062C72.24 72.712 72.03 71.872 71.855 71.312C71.7673 70.873 71.6504 70.4404 71.505 70.017C71.365 69.597 71.2075 69.142 71.0325 68.722C70.6998 67.7091 70.2963 66.7208 69.825 65.7645C69.6042 65.2969 69.3588 64.8413 69.09 64.3995C68.7351 63.6864 68.3256 63.0019 67.865 62.352C67.6836 62.0228 67.4789 61.707 67.2525 61.407C64.3584 57.2748 60.4946 53.9157 56 51.6245C56.6867 51.498 57.3843 51.4394 58.0825 51.4495C64.05 51.4495 64.05 55.107 69.9825 55.107C71.175 55.1347 72.3621 54.9388 73.4825 54.5295C73.9291 54.3724 74.3622 54.1792 74.7775 53.952C76.7375 52.8845 78.1375 51.4495 81.7775 51.4495C82.9687 51.4187 84.1554 51.6086 85.2775 52.0095C85.7325 52.1845 86.1525 52.3945 86.5725 52.6045C88.5325 53.672 89.95 55.107 93.66 55.107C94.2163 55.105 94.7719 55.0641 95.3225 54.9845C99.057 60.1516 101.088 66.3543 101.132 72.7295Z" fill="white"/>
<path d="M72.7652 78.75V79.135C72.7684 80.2574 72.71 81.379 72.5902 82.495C72.5902 82.88 72.4852 83.2825 72.4327 83.6675C72.3277 84.385 72.2052 85.1025 72.0477 85.8025C71.9602 86.1875 71.8727 86.5375 71.7852 86.8875C71.0479 89.8147 69.8676 92.6119 68.2852 95.1825C66.8806 97.5085 65.1675 99.6337 63.1927 101.5L62.4927 101.325C61.249 100.91 60.0706 100.321 58.9927 99.575C58.2786 99.1524 57.5219 98.8063 56.7352 98.5425C55.7203 98.197 54.6572 98.0139 53.5852 98C53.2354 97.9812 52.8849 97.9812 52.5352 98C52.2552 98 51.9752 98 51.7127 98.105C51.179 98.1845 50.6564 98.3254 50.1552 98.525C49.7126 98.6782 49.285 98.8715 48.8777 99.1025C48.0902 99.5225 47.4077 100.013 46.6202 100.45C46.215 100.69 45.7871 100.889 45.3427 101.045C44.2192 101.441 43.0335 101.63 41.8427 101.605C40.6514 101.637 39.4646 101.447 38.3427 101.045C37.8969 100.893 37.4686 100.693 37.0652 100.45C36.2777 100.03 35.5602 99.5575 34.7727 99.1025C34.3625 98.865 33.9284 98.6714 33.4777 98.525C32.2812 98.109 31.015 97.9307 29.7502 98C28.731 97.9803 27.715 98.1221 26.7402 98.42C26.5366 98.4743 26.3377 98.5445 26.1452 98.63C25.0576 99.0989 24.0247 99.6857 23.0652 100.38C22.6627 100.608 22.2602 100.818 21.7877 101.028L21.0352 101.29L20.3877 101.465C15.0534 96.3562 11.724 89.5069 11.0018 82.1563C10.2795 74.8056 12.2122 67.4393 16.4502 61.39C16.9255 61.4568 17.4053 61.486 17.8852 61.4775C18.5483 61.4793 19.2102 61.4208 19.8627 61.3025C20.3891 61.2247 20.9055 61.0898 21.4027 60.9C21.8752 60.725 22.2952 60.515 22.6977 60.3225C23.1002 60.13 23.4502 59.8675 23.8352 59.64L24.6752 59.15L25.5677 58.66L26.2327 58.38L26.9677 58.1525C27.2143 58.0817 27.4658 58.029 27.7202 57.995H27.8952C28.1431 57.9419 28.3946 57.9068 28.6477 57.89L29.7502 57.75H30.8702C31.1291 57.7654 31.3865 57.8005 31.6402 57.855H31.7452C32.0233 57.893 32.2982 57.9515 32.5677 58.03C32.8115 58.0902 33.0512 58.1662 33.2852 58.2575C33.5181 58.3371 33.746 58.4306 33.9677 58.5375C34.5102 58.8 34.9827 59.08 35.4377 59.3425L35.7002 59.5175L36.6102 60.06L36.8552 60.2C37.267 60.4343 37.7007 60.6277 38.1502 60.7775C39.153 61.1478 40.2136 61.3374 41.2827 61.3375H41.6502C42.0347 61.3647 42.4206 61.3647 42.8052 61.3375C43.1223 61.3397 43.4388 61.3103 43.7502 61.25C44.0062 61.2263 44.2586 61.1735 44.5027 61.0925C44.9902 60.9687 45.4648 60.7988 45.9202 60.585C46.1827 60.4625 46.4277 60.3225 46.6727 60.1825C46.8234 60.1208 46.9647 60.0383 47.0927 59.9375C47.4427 59.7625 47.7577 59.5525 48.0902 59.36L48.7902 58.9225C49.2106 58.7058 49.643 58.513 50.0852 58.345L50.8027 58.1175H51.1177C51.2279 58.1012 51.3399 58.1012 51.4502 58.1175C51.6363 58.0982 51.824 58.0982 52.0102 58.1175C52.1905 58.098 52.3724 58.098 52.5527 58.1175H53.5852C59.5352 58.1175 59.5352 61.775 65.4852 61.775C66.0415 61.773 66.597 61.732 67.1477 61.6525C67.3741 61.9525 67.5788 62.2683 67.7602 62.5975C68.2148 63.2356 68.6185 63.9085 68.9677 64.61C69.2365 65.0518 69.4818 65.5074 69.7027 65.975C70.174 66.9313 70.5775 67.9196 70.9102 68.9325C71.0852 69.3525 71.2427 69.8075 71.3827 70.2275C71.5281 70.6509 71.645 71.0835 71.7327 71.5225C71.9077 72.1 72.0477 72.7125 72.1702 73.2725C72.2927 73.8325 72.2927 73.955 72.3277 74.27C72.4327 74.76 72.4852 75.2675 72.5552 75.775C72.5552 76.16 72.5552 76.5275 72.6427 76.9125C72.669 77.2153 72.669 77.5197 72.6427 77.8225C72.7477 78.015 72.7652 78.3475 72.7652 78.75Z" fill="white"/>
<path d="M95.5319 54.9851C94.9813 55.0646 94.4258 55.1055 93.8694 55.1076C90.1594 55.1076 88.742 53.6726 86.782 52.6051C86.3672 52.3719 85.9341 52.1729 85.4869 52.0101C84.3648 51.6091 83.1782 51.4193 81.9869 51.4501C78.2594 51.4501 76.8594 52.8851 74.9869 53.9526C74.5716 54.1798 74.1385 54.3729 73.692 54.5301C72.5716 54.9393 71.3844 55.1352 70.192 55.1076C64.2595 55.1076 64.2595 51.4501 58.292 51.4501C57.5937 51.4399 56.8962 51.4985 56.2095 51.6251C54.2907 50.6297 52.2731 49.8379 50.1895 49.2626C53.8826 46.0652 58.2867 43.7972 63.0345 42.6476C65.4309 42.0767 67.886 41.7889 70.3495 41.7901C75.3217 41.7835 80.2216 42.9801 84.6311 45.2778C89.0406 47.5755 92.8287 50.906 95.6719 54.9851H95.5319Z" stroke="black" stroke-width="4" stroke-miterlimit="10"/>
<path d="M91.5945 95.0949C85.8493 100.61 78.1905 103.683 70.227 103.67C67.447 103.674 64.6795 103.298 62.002 102.55C62.422 102.2 62.8245 101.85 63.227 101.465C65.1759 99.5995 66.8652 97.4805 68.2495 95.1649C68.8274 95.2642 69.4131 95.3111 69.9995 95.3049C71.1908 95.3373 72.3777 95.1474 73.4995 94.7449C74.1573 94.496 74.7901 94.1854 75.3895 93.8174C75.9495 93.4674 76.492 93.1349 77.1395 92.8024C77.5583 92.5825 77.9909 92.3896 78.4345 92.2249C78.9323 92.0373 79.4485 91.9024 79.9745 91.8224C80.6151 91.7039 81.2654 91.6454 81.917 91.6474C82.9601 91.6333 83.999 91.7809 84.997 92.0849C85.2824 92.1679 85.5629 92.2673 85.837 92.3824C87.0795 92.9074 88.0245 93.6424 89.162 94.2199C89.342 94.2968 89.5174 94.3845 89.687 94.4824C90.0731 94.67 90.4778 94.8167 90.8945 94.9199L91.507 95.0949H91.5945Z" stroke="black" stroke-width="4" stroke-miterlimit="10"/>
<path d="M98.2625 85.7505C96.6242 89.2569 94.3451 92.4263 91.5425 95.0955L90.93 94.9205C90.4925 94.7805 90.09 94.6405 89.7225 94.483C89.5529 94.3851 89.3776 94.2974 89.1975 94.2205C88.06 93.643 87.115 92.908 85.8725 92.383C85.5984 92.2678 85.318 92.1685 85.0325 92.0855C84.0346 91.7814 82.9956 91.6338 81.9525 91.648C81.301 91.6459 80.6507 91.7045 80.01 91.823C79.4815 91.8902 78.9638 92.0255 78.47 92.2255C78.0208 92.376 77.5871 92.5694 77.175 92.803C76.5625 93.1355 76.02 93.468 75.425 93.818C74.8256 94.186 74.1928 94.4965 73.535 94.7455C72.4133 95.148 71.2263 95.3379 70.035 95.3055C69.4486 95.3117 68.8629 95.2648 68.285 95.1655C69.8674 92.5949 71.0477 89.7976 71.785 86.8705L72.0475 85.768C72.205 85.068 72.3275 84.3505 72.4325 83.633C72.4325 83.248 72.555 82.8455 72.59 82.4605C72.7098 81.3445 72.7682 80.2229 72.765 79.1005V78.7505C72.765 78.383 72.765 78.0505 72.765 77.683C72.7917 77.3744 72.7917 77.0641 72.765 76.7555C72.765 76.3705 72.765 75.9855 72.6775 75.6005C72.59 75.2155 72.555 74.568 72.45 74.0605C72.345 73.553 72.345 73.413 72.2925 73.063C72.24 72.713 72.03 71.873 71.855 71.313C71.7673 70.874 71.6504 70.4414 71.505 70.018C71.365 69.598 71.2075 69.143 71.0325 68.723C70.6998 67.7101 70.2963 66.7218 69.825 65.7655C69.6042 65.2979 69.3588 64.8422 69.09 64.4005C68.7351 63.6874 68.3255 63.0029 67.865 62.353C67.6836 62.0238 67.4789 61.708 67.2525 61.408C64.3584 57.2757 60.4946 53.9167 56 51.6255C56.6867 51.499 57.3843 51.4403 58.0825 51.4505C64.05 51.4505 64.05 55.108 69.9825 55.108C71.175 55.1356 72.3621 54.9398 73.4825 54.5305C73.9291 54.3733 74.3622 54.1802 74.7775 53.953C76.7375 52.8855 78.1375 51.4505 81.7775 51.4505C82.9687 51.4197 84.1554 51.6096 85.2775 52.0105C85.7325 52.1855 86.1525 52.3955 86.5725 52.6055C88.5325 53.673 89.95 55.108 93.66 55.108C94.2163 55.106 94.7719 55.065 95.3225 54.9855C98.1078 58.8838 99.9469 63.3772 100.694 68.1097C101.441 72.8422 101.076 77.6837 99.6275 82.2505" stroke="black" stroke-width="4" stroke-miterlimit="10"/>
<path d="M79.7297 37.8525C79.731 38.6585 79.5238 39.4511 79.1283 40.1533C78.7327 40.8555 78.1622 41.4434 77.4722 41.86C72.6831 40.6935 67.6839 40.6935 62.8947 41.86C62.5678 41.6739 62.2675 41.4443 62.0022 41.1775C61.3801 40.5145 60.9633 39.6856 60.8021 38.7909C60.6409 37.8961 60.7423 36.9739 61.0939 36.1355C61.4456 35.2971 62.0324 34.5785 62.7837 34.0664C63.5349 33.5544 64.4183 33.2708 65.3272 33.25H75.0747C76.3125 33.2592 77.4965 33.7574 78.3685 34.636C79.2405 35.5145 79.7298 36.7022 79.7297 37.94V37.8525Z" stroke="black" stroke-width="4" stroke-miterlimit="10"/>
<path d="M70.1924 33.18V1.97754" stroke="black" stroke-width="4" stroke-linecap="round" stroke-linejoin="round"/>
<path d="M82.2502 79.2055L82.0052 78.2955L78.7502 79.153L76.5452 77.893L80.7802 76.7555L80.5352 75.828L75.2852 77.228L74.7602 76.913V72.5555L75.2852 72.2405L80.4302 73.623L80.6752 72.6955L76.4052 71.558L78.7502 70.3155L81.9177 71.1555L82.1627 70.2455L79.8702 69.6155L82.6352 68.023L82.2502 67.2005L79.4502 68.8105L80.0802 66.5005L79.1702 66.2555L78.3127 69.4755L76.1077 70.7355L77.2627 66.5005L76.3352 66.2555L74.9527 71.5055L74.4277 71.8205L71.4002 70.0005C71.5456 70.4239 71.6625 70.8565 71.7502 71.2955L73.5002 72.3105L72.1877 73.063C72.1877 73.413 72.3102 73.7455 72.3452 74.0605L73.9727 73.1155V76.388L72.5727 75.583C72.5727 75.968 72.5727 76.3355 72.6602 76.7205L73.5002 77.2105L72.7302 77.648C72.7302 78.0155 72.7302 78.348 72.7302 78.7155L74.4802 77.7355L75.0052 78.033L76.3877 83.178L77.3152 82.933L76.1252 78.7505L78.3302 80.0105L79.1702 83.1955L80.0802 82.9505L79.4677 80.6405L82.2502 82.2505L82.7227 81.428L79.9227 79.818L82.2502 79.2055ZM73.7802 64.4705L70.6652 67.603V65.0655L73.0102 62.703L72.3452 62.038L70.5952 63.788V60.4805H69.6502V63.718L67.9002 61.968L67.6377 62.2305C68.0923 62.8686 68.4961 63.5415 68.8452 64.243L69.5802 64.9605V65.608C70.0515 66.5643 70.455 67.5526 70.7877 68.5655L74.2877 65.0655L73.7802 64.4705ZM72.5902 82.4605C72.5902 82.8455 72.4852 83.248 72.4327 83.633L73.7802 84.998L74.4452 84.3155L72.5902 82.4605ZM72.0477 85.7505C71.9602 86.1355 71.8727 86.4855 71.7852 86.8355L72.3452 87.3955L73.0102 86.7305L72.0477 85.7505Z" stroke="white" stroke-width="4" stroke-miterlimit="10"/>
<path d="M67.1652 61.3549C66.6146 61.4344 66.059 61.4753 65.5027 61.4774C59.5002 61.4774 59.5002 57.7499 53.5852 57.7499H52.5527C52.3724 57.7303 52.1905 57.7303 52.0102 57.7499C51.824 57.7305 51.6364 57.7305 51.4502 57.7499C51.34 57.7336 51.2279 57.7336 51.1177 57.7499H50.8027L50.0852 57.9774C49.643 58.1453 49.2106 58.3381 48.7902 58.5549L48.0902 58.9924C47.7577 59.1849 47.4427 59.3949 47.0927 59.5699C46.9648 59.6707 46.8234 59.7531 46.6727 59.8149C46.4277 59.9549 46.1827 60.0949 45.9202 60.2174C45.4649 60.4311 44.9902 60.601 44.5027 60.7249C44.2769 60.9333 44.0237 61.1099 43.7502 61.2499C43.4629 61.3175 43.17 61.3585 42.8752 61.3724C42.4907 61.3995 42.1047 61.3995 41.7202 61.3724H41.3527C40.2836 61.3722 39.2231 61.1826 38.2202 60.8124C37.7477 60.6374 37.3277 60.4274 36.9252 60.2349L36.7502 60.1824L35.8402 59.6399L35.5777 59.4649C35.0877 59.1849 34.6327 58.9049 34.1077 58.6599L33.2502 58.3799C33.0162 58.2886 32.7765 58.2126 32.5327 58.1524C32.2632 58.0738 31.9883 58.0153 31.7102 57.9774H31.6752C31.4216 57.9229 31.1642 57.8878 30.9052 57.8724L29.7502 57.7499H28.6477C28.3947 57.7666 28.1432 57.8017 27.8952 57.8549H27.7202C27.4659 57.8889 27.2143 57.9415 26.9677 58.0124L26.2327 58.2399L25.5677 58.5199C25.2576 58.659 24.9591 58.8229 24.6752 59.0099L23.8352 59.4999C23.4502 59.7274 23.0827 59.9724 22.6977 60.1824C22.3127 60.3924 21.8752 60.5849 21.4027 60.7599C20.9089 60.9599 20.3912 61.0952 19.8627 61.1624C19.2102 61.2806 18.5483 61.3392 17.8852 61.3374C17.4053 61.3459 16.9255 61.3166 16.4502 61.2499C20.7831 55.0934 27.2197 50.7359 34.5452 48.9999C39.3344 47.8334 44.3335 47.8334 49.1227 48.9999L50.0502 49.2449C56.9894 51.1594 63.0426 55.4363 67.1652 61.3374V61.3549Z" stroke="black" stroke-width="4" stroke-miterlimit="10"/>
<path d="M63.2278 101.5C62.8253 101.885 62.4228 102.235 62.0028 102.585C56.1737 107.605 48.6845 110.274 40.9945 110.074C33.3046 109.873 25.9647 106.817 20.4053 101.5L21.0528 101.325C23.1353 100.695 24.2728 99.4699 26.1803 98.7349C26.3728 98.7349 26.5828 98.595 26.7753 98.525C27.7333 98.195 28.7372 98.0178 29.7503 98C30.9425 97.9764 32.1289 98.1721 33.2503 98.5775C35.1578 99.2425 36.2778 100.327 38.1328 101.097C39.2547 101.499 40.4415 101.689 41.6328 101.657C42.8236 101.683 44.0093 101.493 45.1328 101.097C47.0053 100.432 48.1253 99.26 49.9803 98.5775C50.4815 98.3779 51.0042 98.237 51.5378 98.1575L52.3603 98.07C52.71 98.0512 53.0605 98.0512 53.4103 98.07C54.4582 98.0497 55.503 98.1914 56.5078 98.4899C58.8528 99.2074 60.0078 100.625 62.3178 101.342L63.0178 101.517L63.2278 101.5Z" stroke="black" stroke-width="4" stroke-miterlimit="10"/>
<path d="M12.0223 87.5C11.2545 84.7661 10.8659 81.9397 10.8673 79.1C10.8493 72.761 12.7999 66.5728 16.4498 61.39C16.9251 61.4568 17.4049 61.486 17.8848 61.4775C18.5479 61.4793 19.2098 61.4208 19.8623 61.3025C20.3888 61.2247 20.9051 61.0898 21.4023 60.9C21.8748 60.725 22.2948 60.515 22.6973 60.3225C23.0998 60.13 23.4498 59.8675 23.8348 59.64L24.6748 59.15L25.5673 58.66L26.2323 58.38L26.9673 58.1525C27.214 58.0817 27.4655 58.029 27.7198 57.995H27.8948C28.1428 57.9419 28.3943 57.9068 28.6473 57.89L29.7498 57.75H30.8698C31.1288 57.7654 31.3862 57.8005 31.6398 57.855H31.7448C32.0229 57.893 32.2978 57.9515 32.5673 58.03C32.8112 58.0902 33.0508 58.1662 33.2848 58.2575C33.5177 58.3371 33.7456 58.4306 33.9673 58.5375C34.5098 58.8 34.9823 59.08 35.4373 59.3425L35.6998 59.5175L36.6098 60.06L36.8548 60.2C37.2666 60.4343 37.7003 60.6277 38.1498 60.7775C39.1527 61.1478 40.2133 61.3374 41.2823 61.3375H41.6498C42.0343 61.3647 42.4203 61.3647 42.8048 61.3375C43.1219 61.3397 43.4385 61.3103 43.7498 61.25C44.0058 61.2263 44.2583 61.1735 44.5023 61.0925C44.9898 60.9687 45.4645 60.7988 45.9198 60.585C46.1823 60.4625 46.4273 60.3225 46.6723 60.1825C46.823 60.1208 46.9644 60.0383 47.0923 59.9375C47.4423 59.7625 47.7573 59.5525 48.0898 59.36L48.7898 58.9225C49.2103 58.7058 49.6426 58.513 50.0848 58.345L50.8023 58.1175H51.1173C51.2275 58.1012 51.3396 58.1012 51.4498 58.1175C51.636 58.0982 51.8236 58.0982 52.0098 58.1175C52.1901 58.098 52.372 58.098 52.5523 58.1175H53.5848C59.5348 58.1175 59.5348 61.775 65.4848 61.775C66.0412 61.773 66.5967 61.732 67.1473 61.6525C67.3737 61.9525 67.5784 62.2683 67.7598 62.5975C68.2144 63.2356 68.6182 63.9085 68.9673 64.61C69.2361 65.0518 69.4815 65.5074 69.7023 65.975C70.1736 66.9313 70.5771 67.9196 70.9098 68.9325C71.0848 69.3525 71.2423 69.8075 71.3823 70.2275C71.5277 70.6509 71.6446 71.0835 71.7323 71.5225C71.9073 72.1 72.0473 72.7125 72.1698 73.2725C72.2923 73.8325 72.2923 73.955 72.3273 74.27C72.4323 74.76 72.4848 75.2675 72.5548 75.775C72.5548 76.16 72.5548 76.5275 72.6423 76.9125C72.6686 77.2153 72.6686 77.5197 72.6423 77.8225C72.6423 78.19 72.6423 78.5225 72.6423 78.89V79.275C72.6456 80.3974 72.5871 81.5191 72.4673 82.635C72.4673 83.02 72.3623 83.4225 72.3098 83.8075C72.2048 84.525 72.0823 85.2425 71.9248 85.9425C71.8373 86.3275 71.7498 86.6775 71.6623 87.0275C70.925 89.9547 69.7447 92.7519 68.1623 95.3225C66.7853 97.5918 65.1141 99.669 63.1923 101.5L62.4923 101.325C61.2487 100.91 60.0702 100.321 58.9923 99.575C58.2782 99.1524 57.5215 98.8063 56.7348 98.5425C55.7199 98.197 54.6568 98.0139 53.5848 98C53.2351 97.9812 52.8846 97.9812 52.5348 98C52.2548 98 51.9748 98 51.7123 98.105C51.1787 98.1845 50.6561 98.3254 50.1548 98.525C49.7123 98.6782 49.2847 98.8715 48.8773 99.1025C48.0898 99.5225 47.4073 100.013 46.6198 100.45C46.2146 100.69 45.7867 100.889 45.3423 101.045C44.2188 101.441 43.0332 101.63 41.8423 101.605C40.651 101.637 39.4642 101.447 38.3423 101.045C37.8965 100.893 37.4682 100.693 37.0648 100.45C36.2773 100.03 35.5598 99.5575 34.7723 99.1025C34.3622 98.865 33.9281 98.6714 33.4773 98.525C32.2808 98.109 31.0146 97.9307 29.7498 98C28.7306 97.9803 27.7147 98.1221 26.7398 98.42C26.5363 98.4743 26.3373 98.5445 26.1448 98.63C25.0572 99.0989 24.0244 99.6857 23.0648 100.38C22.6623 100.608 22.2598 100.817 21.7873 101.027L21.0348 101.29L20.3873 101.465C17.7598 98.9603 15.5972 96.0097 13.9998 92.75" stroke="black" stroke-width="4" stroke-miterlimit="10"/>
<path d="M51.3794 44.2222C51.3806 45.0302 51.1715 45.8246 50.7726 46.5272C50.3737 47.2299 49.7988 47.8166 49.1044 48.2297C46.7208 47.6517 44.2771 47.358 41.8244 47.3547C39.3661 47.3606 36.9169 47.6543 34.5269 48.2297C34.2055 48.0432 33.9111 47.8135 33.6519 47.5472C32.9935 46.8923 32.5444 46.0567 32.3615 45.1463C32.1785 44.2358 32.2699 43.2916 32.6242 42.4332C32.9784 41.5748 33.5795 40.8408 34.3513 40.3244C35.123 39.808 36.0308 39.5323 36.9594 39.5322H46.7069C47.9449 39.5459 49.128 40.045 50.0018 40.9221C50.8756 41.7992 51.3703 42.9842 51.3794 44.2222Z" stroke="black" stroke-width="4" stroke-miterlimit="10"/>
<path d="M41.8252 39.5502V8.34766" stroke="black" stroke-width="4" stroke-linecap="round" stroke-linejoin="round"/>
<path d="M53.8998 85.5746L53.6548 84.6646L50.4348 85.5221L48.2298 84.2621L52.4998 83.1246L52.2548 82.2496L47.0048 83.6496L46.4798 83.3346V78.9246L47.0048 78.6096L52.1498 79.9921L52.3948 79.0646L48.1248 77.9271L50.3298 76.6671L53.4973 77.5071L53.7423 76.5971L51.4323 75.9671L54.1973 74.3746L53.9173 73.4996L51.1173 75.1096L51.7298 72.8521L50.7498 72.6421L49.8923 75.8621L47.6873 77.1221L48.8248 72.9046L47.8973 72.6596L46.5148 77.9096L45.9898 78.2246L42.2098 76.0371V75.2496L46.0073 71.4521L45.4998 70.8396L42.3848 73.9721V71.4346L44.7298 69.0721L44.0648 68.4071L42.3148 70.1571V66.8496H41.3698V70.0871L39.6198 68.3371L38.9548 69.0021L41.3173 71.3646V73.9021L38.1848 70.7696L37.5198 71.4346L41.3523 75.2496V75.8621L37.5723 78.0496L37.0298 77.7346L35.6648 72.6071L34.7548 72.8521L35.8923 77.1221L33.7048 75.8621L32.8473 72.6771L31.9198 72.9221L32.5323 75.2496L29.7498 73.5871L29.2773 74.4096L32.0773 76.0196L29.7498 76.6321L29.9948 77.5421L33.2498 76.6846L35.4373 77.9446L31.2198 79.0821L31.4648 80.0096L36.7148 78.6096L37.2398 78.9246V83.2821L36.7148 83.5971L31.4998 82.2496L31.2548 83.1771L35.5248 84.3146L33.2498 85.5221L30.0648 84.6821L29.7498 85.5746L32.0423 86.2046L29.2948 87.7971L29.7673 88.6196L32.5848 86.9921L31.9198 89.2496L32.8473 89.4946L33.7048 86.2746L35.8923 85.0146L34.7548 89.2496L35.6648 89.4946L37.0473 84.2446L37.5898 83.9471L41.3698 86.1346V86.7471L37.5723 90.5271L38.2373 91.2096L41.3698 88.0771V90.6146L39.0073 92.9771L39.6723 93.6421L41.4223 91.8921V95.1296H42.3673V92.1021L44.1173 93.8521L44.7823 93.1871L42.4373 90.8246V88.2346L45.4998 91.3671L46.1823 90.6846L42.3848 86.9046V86.2921L46.1648 84.1046L46.6898 84.4021L48.0723 89.5471L48.9998 89.3021L47.8448 85.0321L50.0498 86.2921L50.7498 89.5296L51.6598 89.2846L51.0473 86.9746L53.8123 88.5846L54.2848 87.7621L51.4848 86.1521L53.8998 85.5746ZM41.3523 82.7921V85.1896L38.4998 83.5621L40.5473 82.3721L40.0748 81.5496L37.9923 82.7571V79.4671L40.0398 80.6396L40.5123 79.8171L38.4998 78.6446L41.3523 76.9996V79.4146H42.2973V76.9996L45.1323 78.6446L43.0848 79.8171L43.5573 80.6396L45.6398 79.4321V82.7046L43.5923 81.5146L43.1198 82.3371L45.2023 83.5446L42.3673 85.1721V82.7921H41.3523ZM43.2773 81.0421C43.2739 80.7556 43.1858 80.4765 43.0241 80.24C42.8624 80.0034 42.6344 79.82 42.3687 79.7127C42.103 79.6055 41.8115 79.5792 41.5309 79.6372C41.2503 79.6952 40.9931 79.8349 40.7917 80.0387C40.5904 80.2425 40.4537 80.5013 40.3991 80.7826C40.3445 81.0639 40.3742 81.355 40.4847 81.6194C40.5951 81.8838 40.7813 82.1096 41.0197 82.2685C41.2582 82.4273 41.5383 82.5121 41.8248 82.5121C42.2041 82.5122 42.5683 82.364 42.8397 82.0991C43.1111 81.8343 43.2682 81.4737 43.2773 81.0946V81.0421ZM41.8248 81.5671C41.6887 81.5626 41.5596 81.5053 41.4649 81.4073C41.3702 81.3093 41.3173 81.1784 41.3173 81.0421C41.3173 80.9075 41.3708 80.7784 41.466 80.6833C41.5612 80.5881 41.6902 80.5346 41.8248 80.5346C41.9594 80.5346 42.0885 80.5881 42.1837 80.6833C42.2789 80.7784 42.3323 80.9075 42.3323 81.0421C42.3396 81.1139 42.332 81.1864 42.3099 81.2551C42.2879 81.3238 42.252 81.3872 42.2044 81.4414C42.1567 81.4956 42.0985 81.5394 42.0332 81.57C41.9679 81.6007 41.897 81.6176 41.8248 81.6196V81.5671Z" stroke="white" stroke-width="4" stroke-miterlimit="10"/>
<g style="mix-blend-mode:multiply">
<g opacity="0.25">
<path d="M60.6368 37.8521C60.638 39.0966 61.1282 40.2908 62.0018 41.1771C62.2672 41.4439 62.5674 41.6735 62.8943 41.8596C67.6835 40.6932 72.6827 40.6932 77.4718 41.8596C78.3692 41.3409 79.0693 40.5395 79.463 39.5807C79.8567 38.6218 79.9216 37.5596 79.6477 36.56C79.3738 35.5604 78.7765 34.6796 77.9491 34.0554C77.1217 33.4311 76.1108 33.0986 75.0744 33.1096H65.3268C64.7072 33.1119 64.094 33.2365 63.5226 33.4763C62.9512 33.7161 62.4328 34.0664 61.997 34.507C61.5613 34.9476 61.2168 35.4699 60.9834 36.044C60.75 36.618 60.6322 37.2325 60.6368 37.8521Z" fill="black"/>
<path d="M43.75 39.5322C45.4998 42.108 46.8344 44.9425 47.705 47.9322L49.07 48.2297C49.6819 47.8662 50.2022 47.3673 50.5911 46.7712C50.98 46.1752 51.227 45.4979 51.3132 44.7915C51.3994 44.085 51.3224 43.3682 51.0883 42.6962C50.8541 42.0241 50.469 41.4147 49.9625 40.9147C49.5338 40.4769 49.0219 40.129 48.4569 39.8916C47.892 39.6542 47.2853 39.532 46.6725 39.5322H43.75Z" fill="black"/>
<path d="M95.5147 54.9851C92.6714 50.906 88.8834 47.5755 84.4739 45.2778C80.0644 42.9801 75.1644 41.7835 70.1922 41.7901C67.7287 41.7889 65.2736 42.0767 62.8772 42.6476C58.1295 43.7972 53.7254 46.0652 50.0322 49.2626L49.1222 49.0001L48.0022 48.7726C48.7022 51.1701 49.2447 53.6551 49.7522 56.0876C49.9097 56.8401 50.0497 57.5926 50.1897 58.3451C51.4631 64.1997 52.0097 70.1891 51.8172 76.1776C51.6352 82.9817 49.2322 89.5394 44.9747 94.8501C42.8755 97.1762 40.481 99.2176 37.8522 100.923C35.0872 102.813 32.1822 104.563 29.4872 106.558L28.8047 107.083C34.1944 109.616 40.2024 110.535 46.1029 109.727C52.0034 108.92 57.5438 106.421 62.0547 102.533C64.7322 103.28 67.4997 103.657 70.2797 103.653C78.2432 103.666 85.902 100.592 91.6472 95.0776C97.0087 89.979 100.359 83.1236 101.089 75.7609C101.818 68.3983 99.8769 61.0187 95.6197 54.9676L95.5147 54.9851ZM41.7022 101.675C41.0333 101.675 40.3658 101.617 39.7072 101.5C40.3663 101.611 41.0339 101.664 41.7022 101.658C42.3877 101.657 43.0722 101.605 43.7497 101.5C43.0726 101.611 42.3882 101.669 41.7022 101.675ZM69.0022 64.3651C69.1422 64.5751 69.2297 64.8026 69.3522 65.0301C69.2297 64.8026 69.1247 64.5751 68.9847 64.3476L69.0022 64.3651ZM51.1172 58.0826H50.8722C50.9536 58.0744 51.0357 58.0744 51.1172 58.0826ZM45.3072 101.08C45.7252 100.929 46.1292 100.741 46.5147 100.52C47.3022 100.083 47.9847 99.5926 48.7722 99.1726C48.9822 99.0501 49.2097 98.9801 49.4372 98.8751C48.0022 99.5576 46.9172 100.485 45.3072 101.08ZM52.4997 98.0876L51.6772 98.1751C51.9397 98.1751 52.2197 98.1751 52.4997 98.0701V98.0876ZM56.7172 98.4551C55.7053 98.1316 54.6468 97.9778 53.5847 98.0001C54.6326 97.9799 55.6774 98.1215 56.6822 98.4201L56.9447 98.5251L56.7172 98.4551ZM62.5272 101.29L61.8622 101.045C62.0787 101.14 62.3008 101.222 62.5272 101.29ZM53.5847 57.7501C59.5347 57.7501 59.5347 61.4076 65.4847 61.4076C59.4997 61.4776 59.4997 57.7501 53.5847 57.7501ZM68.2497 95.1651C67.6398 96.1519 66.9676 97.0988 66.2372 98.0001C66.9636 97.0958 67.6357 96.1491 68.2497 95.1651C68.693 94.4651 69.0955 93.7476 69.4572 93.0126C69.0722 93.7476 68.6697 94.4651 68.2497 95.1651ZM70.9447 68.6701C70.9447 68.7926 70.9447 68.9326 71.0847 69.0551C71.2247 69.1776 70.9797 68.7926 70.9272 68.6701H70.9447ZM71.7497 71.2601C71.8372 71.5926 71.9072 71.9251 71.9772 72.2576C71.9247 71.9251 71.8547 71.5926 71.7497 71.2601ZM72.3447 74.0426C72.3447 74.0426 72.3447 74.2176 72.3447 74.3051C72.3447 74.3926 72.3622 74.1301 72.3447 74.0426ZM78.4697 92.2251C78.9635 92.0251 79.4811 91.8898 80.0097 91.8226C79.4837 91.9026 78.9675 92.0375 78.4697 92.2251Z" fill="white"/>
</g>
</g>
</g>
<defs>
<clipPath id="clip0_311_361">
<rect width="112" height="112" fill="white"/>
</clipPath>
</defs>
</svg>
