<svg width="98" height="98" viewBox="0 0 98 98" fill="none" xmlns="http://www.w3.org/2000/svg">
<path d="M1.24694 94.8203C2.11694 96.367 3.71194 97.3337 5.50028 97.3337H92.5003C94.2886 97.3337 95.8836 96.367 96.7536 94.8203C97.6236 93.2737 97.5269 91.3887 96.5603 89.8903L53.8336 23.432V15.167H73.1669V0.666992H44.1669V23.432L1.44028 89.8903C0.473611 91.3887 0.425277 93.2737 1.24694 94.8203ZM65.1436 58.9087L61.0836 62.147L51.9969 54.897C50.2086 53.4953 47.7436 53.4953 45.9553 54.897L36.8686 62.147L32.8086 58.9087L48.9519 33.7753L65.0953 58.9087H65.1436ZM27.5886 67.077L33.8719 72.1037C35.6603 73.5053 38.1253 73.5053 39.9136 72.1037L49.0003 64.8537L58.0869 72.1037C58.9569 72.8287 60.0203 73.167 61.0836 73.167C62.1469 73.167 63.2103 72.8287 64.0803 72.1037L70.3636 67.077L83.6069 87.667H14.3453L27.5886 67.077Z" fill="black"/>
</svg>
