<svg width="94" height="94" viewBox="0 0 94 94" fill="none" xmlns="http://www.w3.org/2000/svg">
<path d="M74.1817 30.2367C74.1817 25.7326 73.4767 21.2676 72.1059 16.9984C71.4009 16.4109 70.6959 15.9017 69.9517 15.3534C68.9725 45.0809 45.0417 69.0117 15.3142 69.9909C15.8625 70.7351 16.3717 71.4401 16.9592 72.1451C21.2284 73.5159 25.6934 74.2209 30.2367 74.2209C54.4809 74.2209 74.1817 54.5201 74.1817 30.2759V30.2367Z" fill="black"/>
<path d="M42.5741 52.5225C47.5091 48.8408 51.6999 44.2583 54.9508 38.9708C45.6683 28.3175 32.3908 22.1683 18.2908 22.1683C17.7424 22.1683 17.2333 22.2075 16.6849 22.2467C14.6874 24.675 13.0033 27.3775 11.6324 30.2758C24.4008 33.4483 35.3674 41.3208 42.5741 52.4833V52.5225Z" fill="black"/>
<path d="M86.1666 46.9999C86.1666 40.7333 84.6391 34.7799 82.0149 29.5316C82.0149 29.7666 82.0149 30.0016 82.0149 30.2366C82.0149 58.7891 58.7891 82.0149 30.2366 82.0149C30.0016 82.0149 29.7666 82.0149 29.5316 82.0149C34.8191 84.6391 40.7333 86.1666 46.9999 86.1666H86.1666V78.3333H70.3824C79.9391 71.1658 86.1666 59.8074 86.1666 46.9999Z" fill="black"/>
<path d="M62.2359 13.4734C62.2359 12.5725 62.1575 11.7109 62.1184 10.8492C57.4575 8.89087 52.3659 7.83337 47.0392 7.83337C38.8142 7.83337 31.1767 10.3792 24.8708 14.7659C37.7567 16.2542 49.6633 22.1684 58.7892 31.5292C61.0217 25.9284 62.275 19.8575 62.275 13.5125L62.2359 13.4734Z" fill="black"/>
<path d="M8.96921 37.7175C8.22504 40.6942 7.83337 43.7884 7.83337 47C7.83337 52.3267 8.93004 57.4184 10.8492 62.0792C11.7109 62.1575 12.5725 62.2359 13.4734 62.2359C21.5809 62.2359 29.2184 60.1992 35.955 56.7134C29.6884 47.0392 20.0925 40.3025 8.96921 37.7567V37.7175Z" fill="black"/>
</svg>
