<svg width="102" height="104" viewBox="0 0 102 104" fill="none" xmlns="http://www.w3.org/2000/svg">
<path d="M29.75 4.33325C18.8275 4.33325 8.5 19.0666 8.5 34.6666C8.5 41.0799 9.4775 47.1899 10.4975 51.9999H39.6525C40.375 49.6599 41.2675 47.3199 42.2025 44.9366C44.455 39.2166 46.75 33.3233 46.75 25.9999C46.75 15.2533 40.885 4.33325 29.75 4.33325Z" fill="black"/>
<path d="M12.75 69.3334C12.75 76.4834 18.4875 82.3334 25.5 82.3334C32.5125 82.3334 38.25 76.4834 38.25 69.3334V60.6667H12.75V69.3334Z" fill="black"/>
<path d="M72.25 21.6667C61.115 21.6667 55.25 32.5434 55.25 43.3334C55.25 50.6567 57.545 56.5501 59.7975 62.2701C60.7325 64.6534 61.625 66.9501 62.3475 69.3334H91.5025C92.5225 64.5234 93.5 58.4134 93.5 52.0001C93.5 36.4001 83.1725 21.6667 72.25 21.6667Z" fill="black"/>
<path d="M63.75 86.6667C63.75 93.8167 69.4875 99.6667 76.5 99.6667C83.5125 99.6667 89.25 93.8167 89.25 86.6667V78H63.75V86.6667Z" fill="black"/>
</svg>

