<svg width="90" height="90" viewBox="0 0 90 90" fill="none" xmlns="http://www.w3.org/2000/svg">
<path d="M45 7.5C42.0163 7.5 39.1548 8.68526 37.045 10.795C34.9353 12.9048 33.75 15.7663 33.75 18.75C33.75 21.7337 34.9353 24.5952 37.045 26.705C39.1548 28.8147 42.0163 30 45 30C47.9837 30 50.8452 28.8147 52.955 26.705C55.0647 24.5952 56.25 21.7337 56.25 18.75C56.25 15.7663 55.0647 12.9048 52.955 10.795C50.8452 8.68526 47.9837 7.5 45 7.5Z" fill="black"/>
<path d="M7.5 33.75V70.8C7.5 71.8125 7.9125 72.7875 8.6625 73.5C9.4125 74.2125 10.3875 74.625 11.4 74.55C11.55 74.55 26.1375 74.1375 43.125 82.0125V36.675C28.05 30.1125 11.9625 29.9625 11.25 29.9625C9.1875 29.9625 7.5 31.65 7.5 33.7125V33.75Z" fill="black"/>
<path d="M78.75 30C78.0375 30 61.95 30.1125 46.875 36.7125V82.05C63.7875 74.2125 78.4875 74.55 78.6375 74.5875C79.65 74.6625 80.625 74.25 81.375 73.5375C82.0875 72.825 82.5 71.85 82.5 70.8375V33.7875C82.5 31.725 80.8125 30.0375 78.75 30.0375V30Z" fill="black"/>
</svg>
