<svg width="74" height="74" viewBox="0 0 74 74" fill="none" xmlns="http://www.w3.org/2000/svg">
<path d="M37 33.9167C35.3645 33.9167 33.796 34.5664 32.6395 35.7229C31.4831 36.8794 30.8334 38.4479 30.8334 40.0834C30.8334 41.7189 31.4831 43.2874 32.6395 44.4439C33.796 45.6004 35.3645 46.2501 37 46.2501C38.6355 46.2501 40.2041 45.6004 41.3605 44.4439C42.517 43.2874 43.1667 41.7189 43.1667 40.0834C43.1667 38.4479 42.517 36.8794 41.3605 35.7229C40.2041 34.5664 38.6355 33.9167 37 33.9167Z" fill="black"/>
<path d="M61.6666 15.4167H52.4166L45.2633 9.8975C44.7083 9.46583 44.0608 9.25 43.3825 9.25H30.6175C29.9391 9.25 29.2608 9.46583 28.7366 9.8975L21.5833 15.4167H12.3333C8.94163 15.4167 6.16663 18.1917 6.16663 21.5833V58.5833C6.16663 61.975 8.94163 64.75 12.3333 64.75H61.6666C65.0583 64.75 67.8333 61.975 67.8333 58.5833V21.5833C67.8333 18.1917 65.0583 15.4167 61.6666 15.4167ZM37 52.4167C30.3091 52.4167 24.6666 46.7742 24.6666 40.0833C24.6666 33.3925 30.3091 27.75 37 27.75C43.6908 27.75 49.3333 33.3925 49.3333 40.0833C49.3333 46.7742 43.6908 52.4167 37 52.4167ZM58.5833 27.75C56.8875 27.75 55.5 26.3625 55.5 24.6667C55.5 22.9708 56.8875 21.5833 58.5833 21.5833C60.2791 21.5833 61.6666 22.9708 61.6666 24.6667C61.6666 26.3625 60.2791 27.75 58.5833 27.75Z" fill="black"/>
</svg>
