<svg width="90" height="98" viewBox="0 0 90 98" fill="none" xmlns="http://www.w3.org/2000/svg">
<path d="M27.525 68.0283C24.375 64.5983 21.525 61.005 19.0875 57.4116C17.625 55.2475 16.3875 53.1241 15.2625 51.0416L9.33752 70.805C7.87502 75.6641 9.03752 80.9316 12.375 84.525C14.7375 87.0975 17.8875 88.4858 21.1125 88.4858C22.3875 88.4858 23.7 88.2816 24.975 87.8325L43.125 81.3808C41.2125 80.1558 39.2625 78.8083 37.275 77.2158C33.975 74.5616 30.675 71.4583 27.525 68.0283Z" fill="black"/>
<path d="M63.1125 29.2775C62.7375 28.8691 62.325 28.4608 61.9125 28.0116C63.0375 25.9291 63.75 23.4383 63.75 20.3758C63.75 8.41165 54.7875 4.04248 48.75 4.04248V12.2091C50.475 12.2091 56.25 12.9033 56.25 20.3758C56.25 21.07 56.1375 21.6825 55.9875 22.2541C45.225 12.74 33.2625 6.94165 27.3375 13.3933C26.7 14.0875 26.1375 14.945 25.6875 16.0475L25.5375 16.5375C25.3875 16.9458 25.275 17.3133 25.1625 17.7625L18.6 39.69C18.9 40.7516 19.35 42.0583 20.025 43.61C21.2625 46.4275 22.95 49.4083 25.0875 52.5525C27.3375 55.86 29.925 59.0858 32.8125 62.2708C35.7 65.415 38.7 68.2733 41.7375 70.6825C44.5875 73.01 47.3625 74.8475 49.95 76.195C51.375 76.93 52.5375 77.42 53.5125 77.7466L73.65 70.6008C74.1375 70.4783 74.625 70.315 75.075 70.1108H75.225V70.0291C76.125 69.58 76.95 69.0083 77.6625 68.2325C80.025 65.66 81.9 60.4741 77.4375 50.3066C76.05 47.1625 74.175 43.8141 71.925 40.4658C74.775 38.3425 78.3 36.75 82.5375 36.75V28.5833C76.275 28.5833 71.175 30.9925 67.2375 34.055C65.925 32.4625 64.575 30.87 63.15 29.2775H63.1125ZM72.3375 62.4341C72.3375 62.4341 72.3 62.4341 72.2625 62.475L71.325 62.8016C68.0625 63.0466 58.425 58.8408 47.175 46.5908C41.4375 40.3433 36.9 33.6875 34.3125 27.8483C32.55 23.8058 32.25 21.1925 32.4 19.9675L32.5875 19.2733C32.5875 19.2733 32.5875 19.2325 32.5875 19.1916C32.8125 18.9466 33.2625 18.8241 33.9 18.8241C36.5625 18.8241 42.6 21.315 50.1375 27.685C47.5875 28.5016 45.15 28.5833 44.9625 28.5833V36.75C48.1125 36.75 52.6125 35.9333 56.4 33.6466C56.85 34.1366 57.3 34.545 57.7875 35.0758C59.1375 36.5458 60.4125 38.0158 61.6125 39.5266C58.425 43.4058 56.775 46.8766 56.6625 47.2033L63.375 50.8375C63.375 50.8375 64.425 48.6325 66.375 46.06C68.1 48.7141 69.6 51.3275 70.6875 53.8183C73.0125 59.1266 72.825 61.985 72.375 62.475L72.3375 62.4341Z" fill="black"/>
</svg>
