<svg width="100" height="106" viewBox="0 0 100 106" fill="none" xmlns="http://www.w3.org/2000/svg">
<path d="M59.4167 61.8333H60.4167C62 61.8333 63.4167 60.9058 64.125 59.4041C64.8334 57.9025 64.6667 56.1358 63.75 54.7666L56.25 44.1666C57.8334 44.1666 59.25 43.2391 59.9584 41.7375C60.6667 40.2358 60.5 38.4691 59.5834 37.1L40.8334 10.6C39.25 8.39164 35.75 8.39164 34.1667 10.6L15.4167 37.1C14.4584 38.425 14.3334 40.2358 15.0417 41.7375C15.75 43.2391 17.2084 44.1666 18.75 44.1666L11.25 54.7666C10.2917 56.0916 10.1667 57.9025 10.875 59.4041C11.5834 60.9058 13.0417 61.8333 14.5834 61.8333H15.4167L9.00003 72.7425C8.20836 74.1116 8.16669 75.8341 8.87503 77.2033C9.62503 78.6166 11 79.5 12.5417 79.5H33.375V97.1666H41.7084V79.5H62.5417C64.0834 79.5 65.4584 78.6166 66.2084 77.2033C66.9167 75.79 66.875 74.0675 66.0417 72.6983L59.4584 61.8333H59.4167Z" fill="black"/>
<path d="M62.5 83.9166H58.3334V97.1666H66.6667V82.7241C65.4167 83.475 64 83.9166 62.5 83.9166Z" fill="black"/>
<path d="M91 72.6983L84.4167 61.8333H85.4167C87 61.8333 88.4167 60.9058 89.125 59.4041C89.8334 57.9025 89.6667 56.1358 88.75 54.7666L81.25 44.1666C82.8334 44.1666 84.25 43.2391 84.9584 41.7375C85.6667 40.2358 85.5 38.4691 84.5834 37.1L65.8334 10.6C64.25 8.39164 60.75 8.39164 59.1667 10.6L52.5834 19.875L62.875 34.45C64.7917 37.1441 65.0834 40.6775 63.6667 43.725C63.3334 44.4316 62.9167 45.05 62.4584 45.6241L67.0417 52.1166C68.9584 54.8108 69.25 58.3441 67.8334 61.3916C67.3334 62.4958 66.5834 63.4233 65.75 64.1741L69.4584 70.3133C71.125 73.0075 71.25 76.4966 69.75 79.3233C69.75 79.3675 69.6667 79.4558 69.625 79.5H87.4167C88.9584 79.5 90.3334 78.6166 91.0834 77.2033C91.7917 75.79 91.75 74.0675 90.9167 72.6983H91Z" fill="black"/>
</svg>
